%TF.GenerationSoftware,KiCad,Pcbnew,(6.0.2)*%
%TF.CreationDate,2022-03-13T09:07:53-04:00*%
%TF.ProjectId,ButtonBoard,42757474-6f6e-4426-9f61-72642e6b6963,v1*%
%TF.SameCoordinates,Original*%
%TF.FileFunction,Legend,Bot*%
%TF.FilePolarity,Positive*%
%FSLAX46Y46*%
G04 Gerber Fmt 4.6, Leading zero omitted, Abs format (unit mm)*
G04 Created by KiCad (PCBNEW (6.0.2)) date 2022-03-13 09:07:53*
%MOMM*%
%LPD*%
G01*
G04 APERTURE LIST*
%ADD10C,0.150000*%
G04 APERTURE END LIST*
D10*
X150161904Y-90628571D02*
X150019047Y-90676190D01*
X149971428Y-90723809D01*
X149923809Y-90819047D01*
X149923809Y-90961904D01*
X149971428Y-91057142D01*
X150019047Y-91104761D01*
X150114285Y-91152380D01*
X150495238Y-91152380D01*
X150495238Y-90152380D01*
X150161904Y-90152380D01*
X150066666Y-90200000D01*
X150019047Y-90247619D01*
X149971428Y-90342857D01*
X149971428Y-90438095D01*
X150019047Y-90533333D01*
X150066666Y-90580952D01*
X150161904Y-90628571D01*
X150495238Y-90628571D01*
X149066666Y-90485714D02*
X149066666Y-91152380D01*
X149495238Y-90485714D02*
X149495238Y-91009523D01*
X149447619Y-91104761D01*
X149352380Y-91152380D01*
X149209523Y-91152380D01*
X149114285Y-91104761D01*
X149066666Y-91057142D01*
X148733333Y-90485714D02*
X148352380Y-90485714D01*
X148590476Y-90152380D02*
X148590476Y-91009523D01*
X148542857Y-91104761D01*
X148447619Y-91152380D01*
X148352380Y-91152380D01*
X148161904Y-90485714D02*
X147780952Y-90485714D01*
X148019047Y-90152380D02*
X148019047Y-91009523D01*
X147971428Y-91104761D01*
X147876190Y-91152380D01*
X147780952Y-91152380D01*
X147304761Y-91152380D02*
X147400000Y-91104761D01*
X147447619Y-91057142D01*
X147495238Y-90961904D01*
X147495238Y-90676190D01*
X147447619Y-90580952D01*
X147400000Y-90533333D01*
X147304761Y-90485714D01*
X147161904Y-90485714D01*
X147066666Y-90533333D01*
X147019047Y-90580952D01*
X146971428Y-90676190D01*
X146971428Y-90961904D01*
X147019047Y-91057142D01*
X147066666Y-91104761D01*
X147161904Y-91152380D01*
X147304761Y-91152380D01*
X146542857Y-90485714D02*
X146542857Y-91152380D01*
X146542857Y-90580952D02*
X146495238Y-90533333D01*
X146400000Y-90485714D01*
X146257142Y-90485714D01*
X146161904Y-90533333D01*
X146114285Y-90628571D01*
X146114285Y-91152380D01*
X145304761Y-90628571D02*
X145161904Y-90676190D01*
X145114285Y-90723809D01*
X145066666Y-90819047D01*
X145066666Y-90961904D01*
X145114285Y-91057142D01*
X145161904Y-91104761D01*
X145257142Y-91152380D01*
X145638095Y-91152380D01*
X145638095Y-90152380D01*
X145304761Y-90152380D01*
X145209523Y-90200000D01*
X145161904Y-90247619D01*
X145114285Y-90342857D01*
X145114285Y-90438095D01*
X145161904Y-90533333D01*
X145209523Y-90580952D01*
X145304761Y-90628571D01*
X145638095Y-90628571D01*
X144495238Y-91152380D02*
X144590476Y-91104761D01*
X144638095Y-91057142D01*
X144685714Y-90961904D01*
X144685714Y-90676190D01*
X144638095Y-90580952D01*
X144590476Y-90533333D01*
X144495238Y-90485714D01*
X144352380Y-90485714D01*
X144257142Y-90533333D01*
X144209523Y-90580952D01*
X144161904Y-90676190D01*
X144161904Y-90961904D01*
X144209523Y-91057142D01*
X144257142Y-91104761D01*
X144352380Y-91152380D01*
X144495238Y-91152380D01*
X143304761Y-91152380D02*
X143304761Y-90628571D01*
X143352380Y-90533333D01*
X143447619Y-90485714D01*
X143638095Y-90485714D01*
X143733333Y-90533333D01*
X143304761Y-91104761D02*
X143400000Y-91152380D01*
X143638095Y-91152380D01*
X143733333Y-91104761D01*
X143780952Y-91009523D01*
X143780952Y-90914285D01*
X143733333Y-90819047D01*
X143638095Y-90771428D01*
X143400000Y-90771428D01*
X143304761Y-90723809D01*
X142828571Y-91152380D02*
X142828571Y-90485714D01*
X142828571Y-90676190D02*
X142780952Y-90580952D01*
X142733333Y-90533333D01*
X142638095Y-90485714D01*
X142542857Y-90485714D01*
X141780952Y-91152380D02*
X141780952Y-90152380D01*
X141780952Y-91104761D02*
X141876190Y-91152380D01*
X142066666Y-91152380D01*
X142161904Y-91104761D01*
X142209523Y-91057142D01*
X142257142Y-90961904D01*
X142257142Y-90676190D01*
X142209523Y-90580952D01*
X142161904Y-90533333D01*
X142066666Y-90485714D01*
X141876190Y-90485714D01*
X141780952Y-90533333D01*
X140638095Y-90485714D02*
X140400000Y-91152380D01*
X140161904Y-90485714D01*
X139257142Y-91152380D02*
X139828571Y-91152380D01*
X139542857Y-91152380D02*
X139542857Y-90152380D01*
X139638095Y-90295238D01*
X139733333Y-90390476D01*
X139828571Y-90438095D01*
M02*
