%TF.GenerationSoftware,KiCad,Pcbnew,(6.0.2)*%
%TF.CreationDate,2022-03-17T11:38:07-04:00*%
%TF.ProjectId,ArduinoConnector,41726475-696e-46f4-936f-6e6e6563746f,v1*%
%TF.SameCoordinates,Original*%
%TF.FileFunction,Legend,Bot*%
%TF.FilePolarity,Positive*%
%FSLAX46Y46*%
G04 Gerber Fmt 4.6, Leading zero omitted, Abs format (unit mm)*
G04 Created by KiCad (PCBNEW (6.0.2)) date 2022-03-17 11:38:07*
%MOMM*%
%LPD*%
G01*
G04 APERTURE LIST*
%ADD10C,0.150000*%
G04 APERTURE END LIST*
D10*
X116066666Y-80404761D02*
X116066666Y-80880952D01*
X116352380Y-80309523D02*
X115352380Y-80642857D01*
X116352380Y-80976190D01*
X116352380Y-81309523D02*
X115685714Y-81309523D01*
X115876190Y-81309523D02*
X115780952Y-81357142D01*
X115733333Y-81404761D01*
X115685714Y-81500000D01*
X115685714Y-81595238D01*
X116352380Y-82357142D02*
X115352380Y-82357142D01*
X116304761Y-82357142D02*
X116352380Y-82261904D01*
X116352380Y-82071428D01*
X116304761Y-81976190D01*
X116257142Y-81928571D01*
X116161904Y-81880952D01*
X115876190Y-81880952D01*
X115780952Y-81928571D01*
X115733333Y-81976190D01*
X115685714Y-82071428D01*
X115685714Y-82261904D01*
X115733333Y-82357142D01*
X115685714Y-83261904D02*
X116352380Y-83261904D01*
X115685714Y-82833333D02*
X116209523Y-82833333D01*
X116304761Y-82880952D01*
X116352380Y-82976190D01*
X116352380Y-83119047D01*
X116304761Y-83214285D01*
X116257142Y-83261904D01*
X116352380Y-83738095D02*
X115685714Y-83738095D01*
X115352380Y-83738095D02*
X115400000Y-83690476D01*
X115447619Y-83738095D01*
X115400000Y-83785714D01*
X115352380Y-83738095D01*
X115447619Y-83738095D01*
X115685714Y-84214285D02*
X116352380Y-84214285D01*
X115780952Y-84214285D02*
X115733333Y-84261904D01*
X115685714Y-84357142D01*
X115685714Y-84500000D01*
X115733333Y-84595238D01*
X115828571Y-84642857D01*
X116352380Y-84642857D01*
X116352380Y-85261904D02*
X116304761Y-85166666D01*
X116257142Y-85119047D01*
X116161904Y-85071428D01*
X115876190Y-85071428D01*
X115780952Y-85119047D01*
X115733333Y-85166666D01*
X115685714Y-85261904D01*
X115685714Y-85404761D01*
X115733333Y-85500000D01*
X115780952Y-85547619D01*
X115876190Y-85595238D01*
X116161904Y-85595238D01*
X116257142Y-85547619D01*
X116304761Y-85500000D01*
X116352380Y-85404761D01*
X116352380Y-85261904D01*
X116257142Y-86595238D02*
X116304761Y-86547619D01*
X116352380Y-86404761D01*
X116352380Y-86309523D01*
X116304761Y-86166666D01*
X116209523Y-86071428D01*
X116114285Y-86023809D01*
X115923809Y-85976190D01*
X115780952Y-85976190D01*
X115590476Y-86023809D01*
X115495238Y-86071428D01*
X115400000Y-86166666D01*
X115352380Y-86309523D01*
X115352380Y-86404761D01*
X115400000Y-86547619D01*
X115447619Y-86595238D01*
X116352380Y-87166666D02*
X116304761Y-87071428D01*
X116257142Y-87023809D01*
X116161904Y-86976190D01*
X115876190Y-86976190D01*
X115780952Y-87023809D01*
X115733333Y-87071428D01*
X115685714Y-87166666D01*
X115685714Y-87309523D01*
X115733333Y-87404761D01*
X115780952Y-87452380D01*
X115876190Y-87500000D01*
X116161904Y-87500000D01*
X116257142Y-87452380D01*
X116304761Y-87404761D01*
X116352380Y-87309523D01*
X116352380Y-87166666D01*
X115685714Y-87928571D02*
X116352380Y-87928571D01*
X115780952Y-87928571D02*
X115733333Y-87976190D01*
X115685714Y-88071428D01*
X115685714Y-88214285D01*
X115733333Y-88309523D01*
X115828571Y-88357142D01*
X116352380Y-88357142D01*
X115685714Y-88833333D02*
X116352380Y-88833333D01*
X115780952Y-88833333D02*
X115733333Y-88880952D01*
X115685714Y-88976190D01*
X115685714Y-89119047D01*
X115733333Y-89214285D01*
X115828571Y-89261904D01*
X116352380Y-89261904D01*
X116304761Y-90119047D02*
X116352380Y-90023809D01*
X116352380Y-89833333D01*
X116304761Y-89738095D01*
X116209523Y-89690476D01*
X115828571Y-89690476D01*
X115733333Y-89738095D01*
X115685714Y-89833333D01*
X115685714Y-90023809D01*
X115733333Y-90119047D01*
X115828571Y-90166666D01*
X115923809Y-90166666D01*
X116019047Y-89690476D01*
X116304761Y-91023809D02*
X116352380Y-90928571D01*
X116352380Y-90738095D01*
X116304761Y-90642857D01*
X116257142Y-90595238D01*
X116161904Y-90547619D01*
X115876190Y-90547619D01*
X115780952Y-90595238D01*
X115733333Y-90642857D01*
X115685714Y-90738095D01*
X115685714Y-90928571D01*
X115733333Y-91023809D01*
X115685714Y-91309523D02*
X115685714Y-91690476D01*
X115352380Y-91452380D02*
X116209523Y-91452380D01*
X116304761Y-91500000D01*
X116352380Y-91595238D01*
X116352380Y-91690476D01*
X116352380Y-92166666D02*
X116304761Y-92071428D01*
X116257142Y-92023809D01*
X116161904Y-91976190D01*
X115876190Y-91976190D01*
X115780952Y-92023809D01*
X115733333Y-92071428D01*
X115685714Y-92166666D01*
X115685714Y-92309523D01*
X115733333Y-92404761D01*
X115780952Y-92452380D01*
X115876190Y-92500000D01*
X116161904Y-92500000D01*
X116257142Y-92452380D01*
X116304761Y-92404761D01*
X116352380Y-92309523D01*
X116352380Y-92166666D01*
X116352380Y-92928571D02*
X115685714Y-92928571D01*
X115876190Y-92928571D02*
X115780952Y-92976190D01*
X115733333Y-93023809D01*
X115685714Y-93119047D01*
X115685714Y-93214285D01*
X115685714Y-94214285D02*
X116352380Y-94452380D01*
X115685714Y-94690476D01*
X115447619Y-95023809D02*
X115400000Y-95071428D01*
X115352380Y-95166666D01*
X115352380Y-95404761D01*
X115400000Y-95500000D01*
X115447619Y-95547619D01*
X115542857Y-95595238D01*
X115638095Y-95595238D01*
X115780952Y-95547619D01*
X116352380Y-94976190D01*
X116352380Y-95595238D01*
M02*
