%TF.GenerationSoftware,KiCad,Pcbnew,(6.0.2)*%
%TF.CreationDate,2022-03-13T08:59:08-04:00*%
%TF.ProjectId,ArduinoConnector,41726475-696e-46f4-936f-6e6e6563746f,v1*%
%TF.SameCoordinates,Original*%
%TF.FileFunction,Legend,Top*%
%TF.FilePolarity,Positive*%
%FSLAX46Y46*%
G04 Gerber Fmt 4.6, Leading zero omitted, Abs format (unit mm)*
G04 Created by KiCad (PCBNEW (6.0.2)) date 2022-03-13 08:59:08*
%MOMM*%
%LPD*%
G01*
G04 APERTURE LIST*
%ADD10C,0.120000*%
G04 APERTURE END LIST*
D10*
%TO.C,J1*%
X118895000Y-90645000D02*
X120225000Y-90645000D01*
X121495000Y-90645000D02*
X124095000Y-90645000D01*
X118895000Y-93245000D02*
X118895000Y-98385000D01*
X118895000Y-91975000D02*
X118895000Y-90645000D01*
X121495000Y-93245000D02*
X121495000Y-90645000D01*
X118895000Y-93245000D02*
X121495000Y-93245000D01*
X118895000Y-98385000D02*
X124095000Y-98385000D01*
X124095000Y-90645000D02*
X124095000Y-98385000D01*
%TO.C,Q1*%
X125140000Y-85600000D02*
X125140000Y-86250000D01*
X128260000Y-85600000D02*
X128260000Y-86250000D01*
X125140000Y-85600000D02*
X125140000Y-84950000D01*
X128260000Y-85600000D02*
X128260000Y-83925000D01*
%TO.C,R1*%
X126472936Y-83135000D02*
X126927064Y-83135000D01*
X126472936Y-81665000D02*
X126927064Y-81665000D01*
%TO.C,D1*%
X132050000Y-80600000D02*
X128750000Y-80600000D01*
X132050000Y-80600000D02*
X132050000Y-86000000D01*
X128750000Y-80600000D02*
X128750000Y-86000000D01*
%TO.C,J2*%
X126710000Y-89400000D02*
X127240000Y-89650000D01*
X125710000Y-88020000D02*
X125710000Y-98400000D01*
X131730000Y-98400000D02*
X131730000Y-88020000D01*
X131130000Y-90200000D02*
X131730000Y-90200000D01*
X131130000Y-93680000D02*
X131130000Y-95280000D01*
X131730000Y-88600000D02*
X131130000Y-88600000D01*
X131130000Y-97820000D02*
X131730000Y-97820000D01*
X127240000Y-89650000D02*
X127240000Y-96770000D01*
X131130000Y-88600000D02*
X131130000Y-90200000D01*
X130700000Y-87730000D02*
X126700000Y-87730000D01*
X131730000Y-91140000D02*
X131130000Y-91140000D01*
X131130000Y-91140000D02*
X131130000Y-92740000D01*
X131130000Y-92740000D02*
X131730000Y-92740000D01*
X131130000Y-96220000D02*
X131130000Y-97820000D01*
X131730000Y-88020000D02*
X125710000Y-88020000D01*
X127240000Y-96770000D02*
X126710000Y-97020000D01*
X125710000Y-96770000D02*
X126710000Y-96770000D01*
X125710000Y-89650000D02*
X126710000Y-89650000D01*
X131130000Y-95280000D02*
X131730000Y-95280000D01*
X131730000Y-96220000D02*
X131130000Y-96220000D01*
X126710000Y-89400000D02*
X126710000Y-97020000D01*
X126710000Y-97020000D02*
X125710000Y-97020000D01*
X125710000Y-89400000D02*
X126710000Y-89400000D01*
X125710000Y-98400000D02*
X131730000Y-98400000D01*
X131730000Y-93680000D02*
X131130000Y-93680000D01*
%TD*%
M02*
