%TF.GenerationSoftware,KiCad,Pcbnew,(6.0.2)*%
%TF.CreationDate,2022-03-13T08:59:08-04:00*%
%TF.ProjectId,ArduinoConnector,41726475-696e-46f4-936f-6e6e6563746f,v1*%
%TF.SameCoordinates,Original*%
%TF.FileFunction,Copper,L1,Top*%
%TF.FilePolarity,Positive*%
%FSLAX46Y46*%
G04 Gerber Fmt 4.6, Leading zero omitted, Abs format (unit mm)*
G04 Created by KiCad (PCBNEW (6.0.2)) date 2022-03-13 08:59:08*
%MOMM*%
%LPD*%
G01*
G04 APERTURE LIST*
G04 Aperture macros list*
%AMRoundRect*
0 Rectangle with rounded corners*
0 $1 Rounding radius*
0 $2 $3 $4 $5 $6 $7 $8 $9 X,Y pos of 4 corners*
0 Add a 4 corners polygon primitive as box body*
4,1,4,$2,$3,$4,$5,$6,$7,$8,$9,$2,$3,0*
0 Add four circle primitives for the rounded corners*
1,1,$1+$1,$2,$3*
1,1,$1+$1,$4,$5*
1,1,$1+$1,$6,$7*
1,1,$1+$1,$8,$9*
0 Add four rect primitives between the rounded corners*
20,1,$1+$1,$2,$3,$4,$5,0*
20,1,$1+$1,$4,$5,$6,$7,0*
20,1,$1+$1,$6,$7,$8,$9,0*
20,1,$1+$1,$8,$9,$2,$3,0*%
G04 Aperture macros list end*
%TA.AperFunction,ComponentPad*%
%ADD10R,1.700000X1.700000*%
%TD*%
%TA.AperFunction,ComponentPad*%
%ADD11O,1.700000X1.700000*%
%TD*%
%TA.AperFunction,SMDPad,CuDef*%
%ADD12RoundRect,0.150000X-0.150000X0.587500X-0.150000X-0.587500X0.150000X-0.587500X0.150000X0.587500X0*%
%TD*%
%TA.AperFunction,SMDPad,CuDef*%
%ADD13RoundRect,0.250000X-0.262500X-0.450000X0.262500X-0.450000X0.262500X0.450000X-0.262500X0.450000X0*%
%TD*%
%TA.AperFunction,SMDPad,CuDef*%
%ADD14R,1.800000X2.500000*%
%TD*%
%TA.AperFunction,ComponentPad*%
%ADD15RoundRect,0.250000X-0.845000X0.620000X-0.845000X-0.620000X0.845000X-0.620000X0.845000X0.620000X0*%
%TD*%
%TA.AperFunction,ComponentPad*%
%ADD16O,2.190000X1.740000*%
%TD*%
%TA.AperFunction,ViaPad*%
%ADD17C,0.685800*%
%TD*%
%TA.AperFunction,Conductor*%
%ADD18C,0.457200*%
%TD*%
%TA.AperFunction,Conductor*%
%ADD19C,0.203200*%
%TD*%
G04 APERTURE END LIST*
D10*
%TO.P,J1,1,Pin_1*%
%TO.N,/POWER*%
X120225000Y-91975000D03*
D11*
%TO.P,J1,2,Pin_2*%
%TO.N,unconnected-(J1-Pad2)*%
X122765000Y-91975000D03*
%TO.P,J1,3,Pin_3*%
%TO.N,/SENSE*%
X120225000Y-94515000D03*
%TO.P,J1,4,Pin_4*%
%TO.N,+5V*%
X122765000Y-94515000D03*
%TO.P,J1,5,Pin_5*%
%TO.N,/PWM*%
X120225000Y-97055000D03*
%TO.P,J1,6,Pin_6*%
%TO.N,GND*%
X122765000Y-97055000D03*
%TD*%
D12*
%TO.P,Q1,1,B*%
%TO.N,Net-(R1-Pad2)*%
X127650000Y-84662500D03*
%TO.P,Q1,2,E*%
%TO.N,GND*%
X125750000Y-84662500D03*
%TO.P,Q1,3,C*%
%TO.N,/FAN_GND*%
X126700000Y-86537500D03*
%TD*%
D13*
%TO.P,R1,1*%
%TO.N,/POWER*%
X125787500Y-82400000D03*
%TO.P,R1,2*%
%TO.N,Net-(R1-Pad2)*%
X127612500Y-82400000D03*
%TD*%
D14*
%TO.P,D1,1,K*%
%TO.N,+5V*%
X130400000Y-82000000D03*
%TO.P,D1,2,A*%
%TO.N,/FAN_GND*%
X130400000Y-86000000D03*
%TD*%
D15*
%TO.P,J2,1,Pin_1*%
%TO.N,/FAN_GND*%
X128700000Y-89400000D03*
D16*
%TO.P,J2,2,Pin_2*%
%TO.N,+5V*%
X128700000Y-91940000D03*
%TO.P,J2,3,Pin_3*%
%TO.N,/SENSE*%
X128700000Y-94480000D03*
%TO.P,J2,4,Pin_4*%
%TO.N,/PWM*%
X128700000Y-97020000D03*
%TD*%
D17*
%TO.N,GND*%
X125000000Y-97600000D03*
X125000000Y-96600000D03*
X125000000Y-91300000D03*
X125000000Y-92500000D03*
X125000000Y-93700000D03*
X125700000Y-86800000D03*
%TD*%
D18*
%TO.N,+5V*%
X130400000Y-82000000D02*
X131700000Y-83300000D01*
X126125000Y-94515000D02*
X128700000Y-91940000D01*
X131700000Y-83300000D02*
X131700000Y-88940000D01*
X122765000Y-94515000D02*
X126125000Y-94515000D01*
X131700000Y-88940000D02*
X128700000Y-91940000D01*
%TO.N,/FAN_GND*%
X128700000Y-89400000D02*
X130400000Y-87700000D01*
X126700000Y-87400000D02*
X128700000Y-89400000D01*
X130400000Y-87700000D02*
X130400000Y-86000000D01*
X126700000Y-86537500D02*
X126700000Y-87400000D01*
D19*
%TO.N,/POWER*%
X120225000Y-91075000D02*
X120700000Y-90600000D01*
X125100000Y-90300000D02*
X125100000Y-83087500D01*
X124800000Y-90600000D02*
X125100000Y-90300000D01*
X120225000Y-91975000D02*
X120225000Y-91075000D01*
X120700000Y-90600000D02*
X124800000Y-90600000D01*
X125100000Y-83087500D02*
X125787500Y-82400000D01*
%TO.N,/SENSE*%
X127380000Y-95800000D02*
X128700000Y-94480000D01*
X120225000Y-94515000D02*
X121510000Y-95800000D01*
X121510000Y-95800000D02*
X127380000Y-95800000D01*
%TO.N,/PWM*%
X121570000Y-98400000D02*
X127320000Y-98400000D01*
X127320000Y-98400000D02*
X128700000Y-97020000D01*
X120225000Y-97055000D02*
X121570000Y-98400000D01*
%TO.N,Net-(R1-Pad2)*%
X127612500Y-82400000D02*
X127612500Y-84625000D01*
X127612500Y-84625000D02*
X127650000Y-84662500D01*
%TD*%
%TA.AperFunction,Conductor*%
%TO.N,GND*%
G36*
X129242040Y-80620002D02*
G01*
X129288533Y-80673658D01*
X129297962Y-80730252D01*
X129299500Y-80730252D01*
X129299500Y-83269748D01*
X129311133Y-83328231D01*
X129355448Y-83394552D01*
X129421769Y-83438867D01*
X129433938Y-83441288D01*
X129433939Y-83441288D01*
X129474184Y-83449293D01*
X129480252Y-83450500D01*
X131144900Y-83450500D01*
X131213021Y-83470502D01*
X131259514Y-83524158D01*
X131270900Y-83576500D01*
X131270900Y-84423500D01*
X131250898Y-84491621D01*
X131197242Y-84538114D01*
X131144900Y-84549500D01*
X129480252Y-84549500D01*
X129474184Y-84550707D01*
X129433939Y-84558712D01*
X129433938Y-84558712D01*
X129421769Y-84561133D01*
X129355448Y-84605448D01*
X129311133Y-84671769D01*
X129299500Y-84730252D01*
X129299500Y-87269748D01*
X129311133Y-87328231D01*
X129355448Y-87394552D01*
X129421769Y-87438867D01*
X129433938Y-87441288D01*
X129433939Y-87441288D01*
X129474184Y-87449293D01*
X129480252Y-87450500D01*
X129738469Y-87450500D01*
X129806590Y-87470502D01*
X129853083Y-87524158D01*
X129863187Y-87594432D01*
X129833693Y-87659012D01*
X129827565Y-87665595D01*
X129200566Y-88292595D01*
X129138253Y-88326620D01*
X129111470Y-88329500D01*
X128288529Y-88329500D01*
X128220408Y-88309498D01*
X128199434Y-88292595D01*
X127227970Y-87321131D01*
X127193944Y-87258819D01*
X127192385Y-87213848D01*
X127197519Y-87178648D01*
X127200500Y-87158218D01*
X127200500Y-85916782D01*
X127190358Y-85847888D01*
X127138932Y-85743145D01*
X127056350Y-85660707D01*
X126951518Y-85609464D01*
X126921027Y-85605016D01*
X126887744Y-85600160D01*
X126887740Y-85600160D01*
X126883218Y-85599500D01*
X126651485Y-85599500D01*
X126583364Y-85579498D01*
X126536871Y-85525842D01*
X126526767Y-85455568D01*
X126530488Y-85438347D01*
X126553268Y-85359938D01*
X126555570Y-85347333D01*
X126557807Y-85318916D01*
X126558000Y-85313986D01*
X126558000Y-84934615D01*
X126553525Y-84919376D01*
X126552135Y-84918171D01*
X126544452Y-84916500D01*
X126022115Y-84916500D01*
X126006876Y-84920975D01*
X126005671Y-84922365D01*
X126004000Y-84930048D01*
X126004000Y-85886878D01*
X126007973Y-85900409D01*
X126015872Y-85901544D01*
X126038345Y-85895015D01*
X126109342Y-85895216D01*
X126168958Y-85933769D01*
X126198268Y-85998434D01*
X126199500Y-86016011D01*
X126199500Y-87158218D01*
X126209642Y-87227112D01*
X126250245Y-87309811D01*
X126256659Y-87322875D01*
X126268683Y-87393214D01*
X126267374Y-87404276D01*
X126266267Y-87413631D01*
X126267959Y-87422895D01*
X126267959Y-87422897D01*
X126276288Y-87468502D01*
X126276938Y-87472406D01*
X126282347Y-87508379D01*
X126285236Y-87527598D01*
X126288215Y-87533802D01*
X126289450Y-87540563D01*
X126293790Y-87548918D01*
X126315153Y-87590044D01*
X126316921Y-87593581D01*
X126341091Y-87643914D01*
X126345759Y-87648964D01*
X126348930Y-87655068D01*
X126353035Y-87659874D01*
X126388424Y-87695263D01*
X126391854Y-87698829D01*
X126422288Y-87731753D01*
X126422290Y-87731755D01*
X126428678Y-87738665D01*
X126434795Y-87742218D01*
X126440395Y-87747234D01*
X127367595Y-88674434D01*
X127401621Y-88736746D01*
X127404500Y-88763529D01*
X127404500Y-90073834D01*
X127407481Y-90105369D01*
X127452366Y-90233184D01*
X127457958Y-90240754D01*
X127457959Y-90240757D01*
X127486397Y-90279258D01*
X127532850Y-90342150D01*
X127540421Y-90347742D01*
X127634243Y-90417041D01*
X127634246Y-90417042D01*
X127641816Y-90422634D01*
X127769631Y-90467519D01*
X127777277Y-90468242D01*
X127777278Y-90468242D01*
X127783248Y-90468806D01*
X127801166Y-90470500D01*
X129258471Y-90470500D01*
X129326592Y-90490502D01*
X129373085Y-90544158D01*
X129383189Y-90614432D01*
X129353695Y-90679012D01*
X129347566Y-90685595D01*
X129188548Y-90844613D01*
X129126236Y-90878639D01*
X129085409Y-90880733D01*
X128985264Y-90869500D01*
X128422170Y-90869500D01*
X128266066Y-90884806D01*
X128065090Y-90945484D01*
X128059649Y-90948377D01*
X127885174Y-91041147D01*
X127885172Y-91041149D01*
X127879728Y-91044043D01*
X127874949Y-91047941D01*
X127721814Y-91172834D01*
X127721811Y-91172837D01*
X127717039Y-91176729D01*
X127713112Y-91181476D01*
X127713110Y-91181478D01*
X127587150Y-91333737D01*
X127587148Y-91333741D01*
X127583221Y-91338487D01*
X127483370Y-91523157D01*
X127421290Y-91723705D01*
X127420646Y-91729830D01*
X127420646Y-91729831D01*
X127417048Y-91764068D01*
X127399346Y-91932490D01*
X127418373Y-92141562D01*
X127420111Y-92147468D01*
X127420112Y-92147472D01*
X127436380Y-92202744D01*
X127477647Y-92342957D01*
X127507739Y-92400518D01*
X127521574Y-92470152D01*
X127495565Y-92536213D01*
X127485173Y-92547988D01*
X125984166Y-94048995D01*
X125921854Y-94083021D01*
X125895071Y-94085900D01*
X123802368Y-94085900D01*
X123734247Y-94065898D01*
X123691116Y-94019053D01*
X123647111Y-93936290D01*
X123644218Y-93930849D01*
X123570859Y-93840902D01*
X123517906Y-93775975D01*
X123517903Y-93775972D01*
X123514011Y-93771200D01*
X123496786Y-93756950D01*
X123360025Y-93643811D01*
X123360021Y-93643809D01*
X123355275Y-93639882D01*
X123174055Y-93541897D01*
X122977254Y-93480977D01*
X122971129Y-93480333D01*
X122971128Y-93480333D01*
X122778498Y-93460087D01*
X122778496Y-93460087D01*
X122772369Y-93459443D01*
X122685529Y-93467346D01*
X122573342Y-93477555D01*
X122573339Y-93477556D01*
X122567203Y-93478114D01*
X122369572Y-93536280D01*
X122187002Y-93631726D01*
X122182201Y-93635586D01*
X122182198Y-93635588D01*
X122171971Y-93643811D01*
X122026447Y-93760815D01*
X121894024Y-93918630D01*
X121891056Y-93924028D01*
X121891053Y-93924033D01*
X121838816Y-94019053D01*
X121794776Y-94099162D01*
X121792913Y-94105035D01*
X121737907Y-94278438D01*
X121732484Y-94295532D01*
X121731798Y-94301649D01*
X121731797Y-94301653D01*
X121713322Y-94466362D01*
X121709520Y-94500262D01*
X121710036Y-94506406D01*
X121725982Y-94696295D01*
X121726759Y-94705553D01*
X121728458Y-94711478D01*
X121777629Y-94882957D01*
X121783544Y-94903586D01*
X121786359Y-94909063D01*
X121786360Y-94909066D01*
X121874897Y-95081341D01*
X121877712Y-95086818D01*
X122005677Y-95248270D01*
X122010370Y-95252264D01*
X122010371Y-95252265D01*
X122038196Y-95275946D01*
X122077109Y-95335329D01*
X122077740Y-95406323D01*
X122039888Y-95466388D01*
X121975572Y-95496453D01*
X121956533Y-95497900D01*
X121687324Y-95497900D01*
X121619203Y-95477898D01*
X121598229Y-95460995D01*
X121216908Y-95079674D01*
X121182882Y-95017362D01*
X121187929Y-94946798D01*
X121189323Y-94944344D01*
X121195066Y-94927082D01*
X121242356Y-94784920D01*
X121254351Y-94748863D01*
X121280171Y-94544474D01*
X121280583Y-94515000D01*
X121260480Y-94309970D01*
X121200935Y-94112749D01*
X121104218Y-93930849D01*
X121030859Y-93840902D01*
X120977906Y-93775975D01*
X120977903Y-93775972D01*
X120974011Y-93771200D01*
X120956786Y-93756950D01*
X120820025Y-93643811D01*
X120820021Y-93643809D01*
X120815275Y-93639882D01*
X120634055Y-93541897D01*
X120437254Y-93480977D01*
X120431129Y-93480333D01*
X120431128Y-93480333D01*
X120238498Y-93460087D01*
X120238496Y-93460087D01*
X120232369Y-93459443D01*
X120145529Y-93467346D01*
X120033342Y-93477555D01*
X120033339Y-93477556D01*
X120027203Y-93478114D01*
X119829572Y-93536280D01*
X119647002Y-93631726D01*
X119642201Y-93635586D01*
X119642198Y-93635588D01*
X119631971Y-93643811D01*
X119486447Y-93760815D01*
X119354024Y-93918630D01*
X119351056Y-93924028D01*
X119351053Y-93924033D01*
X119298816Y-94019053D01*
X119254776Y-94099162D01*
X119252913Y-94105035D01*
X119197907Y-94278438D01*
X119192484Y-94295532D01*
X119191798Y-94301649D01*
X119191797Y-94301653D01*
X119173322Y-94466362D01*
X119169520Y-94500262D01*
X119170036Y-94506406D01*
X119185982Y-94696295D01*
X119186759Y-94705553D01*
X119188458Y-94711478D01*
X119237629Y-94882957D01*
X119243544Y-94903586D01*
X119246359Y-94909063D01*
X119246360Y-94909066D01*
X119334897Y-95081341D01*
X119337712Y-95086818D01*
X119465677Y-95248270D01*
X119470370Y-95252264D01*
X119470371Y-95252265D01*
X119513991Y-95289388D01*
X119622564Y-95381791D01*
X119802398Y-95482297D01*
X119871797Y-95504846D01*
X119992471Y-95544056D01*
X119992475Y-95544057D01*
X119998329Y-95545959D01*
X120202894Y-95570351D01*
X120209029Y-95569879D01*
X120209031Y-95569879D01*
X120265039Y-95565569D01*
X120408300Y-95554546D01*
X120414230Y-95552890D01*
X120414232Y-95552890D01*
X120600797Y-95500800D01*
X120600796Y-95500800D01*
X120606725Y-95499145D01*
X120612218Y-95496370D01*
X120612224Y-95496368D01*
X120641707Y-95481475D01*
X120711529Y-95468615D01*
X120777220Y-95495545D01*
X120787612Y-95504846D01*
X121259131Y-95976365D01*
X121260921Y-95978439D01*
X121263268Y-95983240D01*
X121271797Y-95991152D01*
X121271798Y-95991153D01*
X121299375Y-96016734D01*
X121302780Y-96020014D01*
X121316250Y-96033484D01*
X121320235Y-96036218D01*
X121322933Y-96038587D01*
X121324355Y-96039906D01*
X121345776Y-96059777D01*
X121356579Y-96064087D01*
X121360415Y-96066512D01*
X121371742Y-96072559D01*
X121375894Y-96074399D01*
X121385487Y-96080980D01*
X121409647Y-96086714D01*
X121427237Y-96092277D01*
X121450305Y-96101480D01*
X121456628Y-96102100D01*
X121459736Y-96102100D01*
X121459755Y-96102102D01*
X121462779Y-96102250D01*
X121462769Y-96102455D01*
X121474546Y-96103833D01*
X121483664Y-96104279D01*
X121494986Y-96106966D01*
X121506516Y-96105397D01*
X121506517Y-96105397D01*
X121514916Y-96104254D01*
X121585112Y-96114888D01*
X121638415Y-96161784D01*
X121657902Y-96230054D01*
X121635994Y-96300108D01*
X121583095Y-96377655D01*
X121578000Y-96386623D01*
X121488338Y-96579783D01*
X121484775Y-96589470D01*
X121456012Y-96693185D01*
X121418533Y-96753483D01*
X121354405Y-96783946D01*
X121283986Y-96774903D01*
X121229636Y-96729224D01*
X121213973Y-96695933D01*
X121213143Y-96693185D01*
X121200935Y-96652749D01*
X121104218Y-96470849D01*
X121028211Y-96377655D01*
X120977906Y-96315975D01*
X120977903Y-96315972D01*
X120974011Y-96311200D01*
X120956290Y-96296540D01*
X120820025Y-96183811D01*
X120820021Y-96183809D01*
X120815275Y-96179882D01*
X120656852Y-96094223D01*
X120639474Y-96084827D01*
X120634055Y-96081897D01*
X120437254Y-96020977D01*
X120431129Y-96020333D01*
X120431128Y-96020333D01*
X120238498Y-96000087D01*
X120238496Y-96000087D01*
X120232369Y-95999443D01*
X120145529Y-96007346D01*
X120033342Y-96017555D01*
X120033339Y-96017556D01*
X120027203Y-96018114D01*
X119829572Y-96076280D01*
X119824107Y-96079137D01*
X119758100Y-96113645D01*
X119647002Y-96171726D01*
X119642201Y-96175586D01*
X119642198Y-96175588D01*
X119532951Y-96263425D01*
X119486447Y-96300815D01*
X119354024Y-96458630D01*
X119351056Y-96464028D01*
X119351053Y-96464033D01*
X119344315Y-96476290D01*
X119254776Y-96639162D01*
X119252913Y-96645035D01*
X119197907Y-96818438D01*
X119192484Y-96835532D01*
X119191798Y-96841649D01*
X119191797Y-96841653D01*
X119189865Y-96858879D01*
X119169520Y-97040262D01*
X119170036Y-97046406D01*
X119185982Y-97236295D01*
X119186759Y-97245553D01*
X119188458Y-97251478D01*
X119237629Y-97422957D01*
X119243544Y-97443586D01*
X119246359Y-97449063D01*
X119246360Y-97449066D01*
X119334041Y-97619675D01*
X119337712Y-97626818D01*
X119465677Y-97788270D01*
X119622564Y-97921791D01*
X119802398Y-98022297D01*
X119871797Y-98044846D01*
X119992471Y-98084056D01*
X119992475Y-98084057D01*
X119998329Y-98085959D01*
X120202894Y-98110351D01*
X120209029Y-98109879D01*
X120209031Y-98109879D01*
X120265039Y-98105569D01*
X120408300Y-98094546D01*
X120414230Y-98092890D01*
X120414232Y-98092890D01*
X120600797Y-98040800D01*
X120600796Y-98040800D01*
X120606725Y-98039145D01*
X120612218Y-98036370D01*
X120612224Y-98036368D01*
X120641707Y-98021475D01*
X120711529Y-98008615D01*
X120777220Y-98035545D01*
X120787612Y-98044846D01*
X121319131Y-98576365D01*
X121320921Y-98578439D01*
X121323268Y-98583240D01*
X121331796Y-98591151D01*
X121337530Y-98598871D01*
X121362091Y-98665484D01*
X121346739Y-98734801D01*
X121296348Y-98784814D01*
X121236379Y-98800000D01*
X118626000Y-98800000D01*
X118557879Y-98779998D01*
X118511386Y-98726342D01*
X118500000Y-98674000D01*
X118500000Y-90326000D01*
X118520002Y-90257879D01*
X118573658Y-90211386D01*
X118626000Y-90200000D01*
X120368576Y-90200000D01*
X120436697Y-90220002D01*
X120483190Y-90273658D01*
X120493294Y-90343932D01*
X120463800Y-90408512D01*
X120457671Y-90415095D01*
X120048635Y-90824131D01*
X120046561Y-90825921D01*
X120041760Y-90828268D01*
X120033848Y-90836797D01*
X120033847Y-90836798D01*
X120008266Y-90864375D01*
X120004986Y-90867780D01*
X119991515Y-90881251D01*
X119991208Y-90880944D01*
X119935132Y-90918638D01*
X119897148Y-90924500D01*
X119355252Y-90924500D01*
X119349184Y-90925707D01*
X119308939Y-90933712D01*
X119308938Y-90933712D01*
X119296769Y-90936133D01*
X119230448Y-90980448D01*
X119186133Y-91046769D01*
X119174500Y-91105252D01*
X119174500Y-92844748D01*
X119175707Y-92850816D01*
X119179331Y-92869033D01*
X119186133Y-92903231D01*
X119230448Y-92969552D01*
X119296769Y-93013867D01*
X119308938Y-93016288D01*
X119308939Y-93016288D01*
X119349184Y-93024293D01*
X119355252Y-93025500D01*
X121094748Y-93025500D01*
X121100816Y-93024293D01*
X121141061Y-93016288D01*
X121141062Y-93016288D01*
X121153231Y-93013867D01*
X121219552Y-92969552D01*
X121263867Y-92903231D01*
X121270670Y-92869033D01*
X121274293Y-92850816D01*
X121275500Y-92844748D01*
X121275500Y-91105252D01*
X121265043Y-91052681D01*
X121271371Y-90981967D01*
X121314925Y-90925900D01*
X121388622Y-90902100D01*
X122065052Y-90902100D01*
X122133173Y-90922102D01*
X122179666Y-90975758D01*
X122189770Y-91046032D01*
X122160276Y-91110612D01*
X122144004Y-91126297D01*
X122031254Y-91216950D01*
X122026447Y-91220815D01*
X121894024Y-91378630D01*
X121891056Y-91384028D01*
X121891053Y-91384033D01*
X121806936Y-91537043D01*
X121794776Y-91559162D01*
X121792913Y-91565035D01*
X121737907Y-91738438D01*
X121732484Y-91755532D01*
X121731798Y-91761649D01*
X121731797Y-91761653D01*
X121713322Y-91926362D01*
X121709520Y-91960262D01*
X121710036Y-91966406D01*
X121725982Y-92156295D01*
X121726759Y-92165553D01*
X121728458Y-92171478D01*
X121779194Y-92348415D01*
X121783544Y-92363586D01*
X121786359Y-92369063D01*
X121786360Y-92369066D01*
X121872262Y-92536213D01*
X121877712Y-92546818D01*
X122005677Y-92708270D01*
X122162564Y-92841791D01*
X122342398Y-92942297D01*
X122426280Y-92969552D01*
X122532471Y-93004056D01*
X122532475Y-93004057D01*
X122538329Y-93005959D01*
X122742894Y-93030351D01*
X122749029Y-93029879D01*
X122749031Y-93029879D01*
X122821625Y-93024293D01*
X122948300Y-93014546D01*
X122954230Y-93012890D01*
X122954232Y-93012890D01*
X123140797Y-92960800D01*
X123140796Y-92960800D01*
X123146725Y-92959145D01*
X123152214Y-92956372D01*
X123152220Y-92956370D01*
X123325116Y-92869033D01*
X123330610Y-92866258D01*
X123492951Y-92739424D01*
X123528257Y-92698522D01*
X123623540Y-92588134D01*
X123623540Y-92588133D01*
X123627564Y-92583472D01*
X123648387Y-92546818D01*
X123726276Y-92409707D01*
X123729323Y-92404344D01*
X123794351Y-92208863D01*
X123820171Y-92004474D01*
X123820583Y-91975000D01*
X123800480Y-91769970D01*
X123740935Y-91572749D01*
X123644218Y-91390849D01*
X123570859Y-91300902D01*
X123517906Y-91235975D01*
X123517903Y-91235972D01*
X123514011Y-91231200D01*
X123385861Y-91125185D01*
X123346122Y-91066351D01*
X123344500Y-90995373D01*
X123381510Y-90934785D01*
X123445400Y-90903825D01*
X123466176Y-90902100D01*
X124747322Y-90902100D01*
X124750048Y-90902300D01*
X124755104Y-90904036D01*
X124804304Y-90902189D01*
X124809030Y-90902100D01*
X124828097Y-90902100D01*
X124832845Y-90901216D01*
X124836439Y-90900983D01*
X124855941Y-90900251D01*
X124855943Y-90900250D01*
X124867566Y-90899814D01*
X124878255Y-90895222D01*
X124882685Y-90894223D01*
X124894951Y-90890497D01*
X124899201Y-90888857D01*
X124910639Y-90886727D01*
X124920541Y-90880623D01*
X124920547Y-90880621D01*
X124931779Y-90873697D01*
X124948150Y-90865192D01*
X124970968Y-90855389D01*
X124975877Y-90851357D01*
X124978072Y-90849162D01*
X124978076Y-90849159D01*
X124980331Y-90847114D01*
X124980470Y-90847267D01*
X124989781Y-90839906D01*
X124996539Y-90833778D01*
X125006442Y-90827674D01*
X125023122Y-90805739D01*
X125034322Y-90792912D01*
X125276365Y-90550868D01*
X125278437Y-90549080D01*
X125283240Y-90546732D01*
X125316746Y-90510612D01*
X125320026Y-90507207D01*
X125333484Y-90493749D01*
X125336218Y-90489764D01*
X125338578Y-90487077D01*
X125351864Y-90472754D01*
X125359777Y-90464224D01*
X125364088Y-90453418D01*
X125366513Y-90449582D01*
X125372559Y-90438258D01*
X125374399Y-90434106D01*
X125380980Y-90424513D01*
X125386714Y-90400353D01*
X125392277Y-90382763D01*
X125398184Y-90367956D01*
X125401480Y-90359695D01*
X125402100Y-90353372D01*
X125402100Y-90350263D01*
X125402102Y-90350244D01*
X125402250Y-90347221D01*
X125402455Y-90347231D01*
X125403833Y-90335453D01*
X125404279Y-90326335D01*
X125406966Y-90315013D01*
X125403251Y-90287715D01*
X125402100Y-90270724D01*
X125402100Y-86025798D01*
X125422102Y-85957677D01*
X125464205Y-85921195D01*
X125463421Y-85919983D01*
X125472024Y-85914420D01*
X125475758Y-85911184D01*
X125477677Y-85910764D01*
X125491971Y-85901520D01*
X125496000Y-85892630D01*
X125496000Y-84534500D01*
X125516002Y-84466379D01*
X125569658Y-84419886D01*
X125622000Y-84408500D01*
X126539884Y-84408500D01*
X126555123Y-84404025D01*
X126556328Y-84402635D01*
X126557999Y-84394952D01*
X126557999Y-84011017D01*
X126557805Y-84006080D01*
X126555570Y-83977664D01*
X126553270Y-83965069D01*
X126510893Y-83819210D01*
X126504648Y-83804779D01*
X126428089Y-83675322D01*
X126418449Y-83662896D01*
X126312104Y-83556551D01*
X126299674Y-83546909D01*
X126206720Y-83491937D01*
X126158267Y-83440045D01*
X126145561Y-83370194D01*
X126172636Y-83304563D01*
X126229109Y-83264601D01*
X126254297Y-83255755D01*
X126254298Y-83255755D01*
X126263184Y-83252634D01*
X126270754Y-83247042D01*
X126270757Y-83247041D01*
X126364579Y-83177742D01*
X126372150Y-83172150D01*
X126384665Y-83155206D01*
X126447041Y-83070757D01*
X126447042Y-83070754D01*
X126452634Y-83063184D01*
X126497519Y-82935369D01*
X126500500Y-82903834D01*
X126899500Y-82903834D01*
X126902481Y-82935369D01*
X126947366Y-83063184D01*
X126952958Y-83070754D01*
X126952959Y-83070757D01*
X127015335Y-83155206D01*
X127027850Y-83172150D01*
X127035421Y-83177742D01*
X127129243Y-83247041D01*
X127129246Y-83247042D01*
X127136816Y-83252634D01*
X127185550Y-83269748D01*
X127226148Y-83284005D01*
X127283794Y-83325448D01*
X127309882Y-83391478D01*
X127310400Y-83402888D01*
X127310400Y-83716656D01*
X127290398Y-83784777D01*
X127273573Y-83805674D01*
X127210707Y-83868650D01*
X127159464Y-83973482D01*
X127149500Y-84041782D01*
X127149500Y-85283218D01*
X127150170Y-85287768D01*
X127150170Y-85287771D01*
X127158216Y-85342426D01*
X127159642Y-85352112D01*
X127211068Y-85456855D01*
X127218438Y-85464212D01*
X127280176Y-85525842D01*
X127293650Y-85539293D01*
X127398482Y-85590536D01*
X127428973Y-85594984D01*
X127462256Y-85599840D01*
X127462260Y-85599840D01*
X127466782Y-85600500D01*
X127833218Y-85600500D01*
X127837768Y-85599830D01*
X127837771Y-85599830D01*
X127892426Y-85591784D01*
X127892427Y-85591784D01*
X127902112Y-85590358D01*
X127996804Y-85543867D01*
X127997507Y-85543522D01*
X127997509Y-85543521D01*
X128006855Y-85538932D01*
X128089293Y-85456350D01*
X128140536Y-85351518D01*
X128150500Y-85283218D01*
X128150500Y-84041782D01*
X128141871Y-83983162D01*
X128141784Y-83982574D01*
X128141784Y-83982573D01*
X128140358Y-83972888D01*
X128088932Y-83868145D01*
X128006350Y-83785707D01*
X127996995Y-83781134D01*
X127996992Y-83781132D01*
X127985265Y-83775400D01*
X127932849Y-83727514D01*
X127914600Y-83662201D01*
X127914600Y-83402888D01*
X127934602Y-83334767D01*
X127988258Y-83288274D01*
X127998852Y-83284005D01*
X128039450Y-83269748D01*
X128088184Y-83252634D01*
X128095754Y-83247042D01*
X128095757Y-83247041D01*
X128189579Y-83177742D01*
X128197150Y-83172150D01*
X128209665Y-83155206D01*
X128272041Y-83070757D01*
X128272042Y-83070754D01*
X128277634Y-83063184D01*
X128322519Y-82935369D01*
X128325500Y-82903834D01*
X128325500Y-81896166D01*
X128322519Y-81864631D01*
X128277634Y-81736816D01*
X128272042Y-81729246D01*
X128272041Y-81729243D01*
X128202742Y-81635421D01*
X128197150Y-81627850D01*
X128180206Y-81615335D01*
X128095757Y-81552959D01*
X128095754Y-81552958D01*
X128088184Y-81547366D01*
X127960369Y-81502481D01*
X127952723Y-81501758D01*
X127952722Y-81501758D01*
X127946752Y-81501194D01*
X127928834Y-81499500D01*
X127296166Y-81499500D01*
X127278248Y-81501194D01*
X127272278Y-81501758D01*
X127272277Y-81501758D01*
X127264631Y-81502481D01*
X127136816Y-81547366D01*
X127129246Y-81552958D01*
X127129243Y-81552959D01*
X127044794Y-81615335D01*
X127027850Y-81627850D01*
X127022258Y-81635421D01*
X126952959Y-81729243D01*
X126952958Y-81729246D01*
X126947366Y-81736816D01*
X126902481Y-81864631D01*
X126899500Y-81896166D01*
X126899500Y-82903834D01*
X126500500Y-82903834D01*
X126500500Y-81896166D01*
X126497519Y-81864631D01*
X126452634Y-81736816D01*
X126447042Y-81729246D01*
X126447041Y-81729243D01*
X126377742Y-81635421D01*
X126372150Y-81627850D01*
X126355206Y-81615335D01*
X126270757Y-81552959D01*
X126270754Y-81552958D01*
X126263184Y-81547366D01*
X126135369Y-81502481D01*
X126127723Y-81501758D01*
X126127722Y-81501758D01*
X126121752Y-81501194D01*
X126103834Y-81499500D01*
X125471166Y-81499500D01*
X125453248Y-81501194D01*
X125447278Y-81501758D01*
X125447277Y-81501758D01*
X125439631Y-81502481D01*
X125311816Y-81547366D01*
X125304246Y-81552958D01*
X125304243Y-81552959D01*
X125219794Y-81615335D01*
X125202850Y-81627850D01*
X125197258Y-81635421D01*
X125197255Y-81635424D01*
X125127351Y-81730066D01*
X125070790Y-81772977D01*
X125000008Y-81778497D01*
X124937479Y-81744873D01*
X124903054Y-81682781D01*
X124900000Y-81655207D01*
X124900000Y-80726000D01*
X124920002Y-80657879D01*
X124973658Y-80611386D01*
X125026000Y-80600000D01*
X129173919Y-80600000D01*
X129242040Y-80620002D01*
G37*
%TD.AperFunction*%
%TA.AperFunction,Conductor*%
G36*
X132131606Y-89239982D02*
G01*
X132183046Y-89288915D01*
X132200000Y-89352042D01*
X132200000Y-98674000D01*
X132179998Y-98742121D01*
X132126342Y-98788614D01*
X132074000Y-98800000D01*
X127651424Y-98800000D01*
X127583303Y-98779998D01*
X127536810Y-98726342D01*
X127526706Y-98656068D01*
X127556200Y-98591488D01*
X127562329Y-98584905D01*
X128063345Y-98083889D01*
X128125657Y-98049863D01*
X128190538Y-98052882D01*
X128251354Y-98072174D01*
X128414736Y-98090500D01*
X128977830Y-98090500D01*
X129133934Y-98075194D01*
X129334910Y-98014516D01*
X129509300Y-97921791D01*
X129514826Y-97918853D01*
X129514828Y-97918851D01*
X129520272Y-97915957D01*
X129580308Y-97866993D01*
X129678186Y-97787166D01*
X129678189Y-97787163D01*
X129682961Y-97783271D01*
X129701369Y-97761020D01*
X129812850Y-97626263D01*
X129812852Y-97626259D01*
X129816779Y-97621513D01*
X129916630Y-97436843D01*
X129978710Y-97236295D01*
X129980259Y-97221562D01*
X130000010Y-97033638D01*
X130000010Y-97033637D01*
X130000654Y-97027510D01*
X129991507Y-96927000D01*
X129982186Y-96824577D01*
X129982185Y-96824574D01*
X129981627Y-96818438D01*
X129975326Y-96797027D01*
X129931261Y-96647310D01*
X129922353Y-96617043D01*
X129873722Y-96524020D01*
X129827945Y-96436456D01*
X129827944Y-96436455D01*
X129825091Y-96430997D01*
X129693544Y-96267386D01*
X129532724Y-96132442D01*
X129527332Y-96129478D01*
X129527328Y-96129475D01*
X129354152Y-96034271D01*
X129348755Y-96031304D01*
X129180353Y-95977884D01*
X129154519Y-95969689D01*
X129148646Y-95967826D01*
X129142529Y-95967140D01*
X129142525Y-95967139D01*
X129064608Y-95958400D01*
X128985264Y-95949500D01*
X128422170Y-95949500D01*
X128266066Y-95964806D01*
X128065090Y-96025484D01*
X128059649Y-96028377D01*
X127885174Y-96121147D01*
X127885172Y-96121149D01*
X127879728Y-96124043D01*
X127874949Y-96127941D01*
X127721814Y-96252834D01*
X127721811Y-96252837D01*
X127717039Y-96256729D01*
X127713112Y-96261476D01*
X127713110Y-96261478D01*
X127587150Y-96413737D01*
X127587148Y-96413741D01*
X127583221Y-96418487D01*
X127483370Y-96603157D01*
X127421290Y-96803705D01*
X127420646Y-96809830D01*
X127420646Y-96809831D01*
X127416427Y-96849970D01*
X127399346Y-97012490D01*
X127402433Y-97046406D01*
X127414864Y-97183000D01*
X127418373Y-97221562D01*
X127420111Y-97227468D01*
X127420112Y-97227472D01*
X127445219Y-97312778D01*
X127477647Y-97422957D01*
X127480500Y-97428414D01*
X127480501Y-97428417D01*
X127569399Y-97598464D01*
X127583233Y-97668100D01*
X127557223Y-97734160D01*
X127546832Y-97745934D01*
X127231771Y-98060995D01*
X127169459Y-98095021D01*
X127142676Y-98097900D01*
X123933626Y-98097900D01*
X123865505Y-98077898D01*
X123819012Y-98024242D01*
X123808908Y-97953968D01*
X123831304Y-97898374D01*
X123930004Y-97761020D01*
X123935313Y-97752183D01*
X124029670Y-97561267D01*
X124033469Y-97551672D01*
X124095377Y-97347910D01*
X124097555Y-97337837D01*
X124098986Y-97326962D01*
X124096775Y-97312778D01*
X124083617Y-97309000D01*
X122637000Y-97309000D01*
X122568879Y-97288998D01*
X122522386Y-97235342D01*
X122511000Y-97183000D01*
X122511000Y-96927000D01*
X122531002Y-96858879D01*
X122584658Y-96812386D01*
X122637000Y-96801000D01*
X124083344Y-96801000D01*
X124096875Y-96797027D01*
X124098180Y-96787947D01*
X124056214Y-96620875D01*
X124052894Y-96611124D01*
X123967972Y-96415814D01*
X123963105Y-96406739D01*
X123891815Y-96296540D01*
X123871608Y-96228480D01*
X123891404Y-96160299D01*
X123944920Y-96113645D01*
X123997607Y-96102100D01*
X127327322Y-96102100D01*
X127330048Y-96102300D01*
X127335104Y-96104036D01*
X127384304Y-96102189D01*
X127389030Y-96102100D01*
X127408097Y-96102100D01*
X127412845Y-96101216D01*
X127416439Y-96100983D01*
X127435941Y-96100251D01*
X127435943Y-96100250D01*
X127447566Y-96099814D01*
X127458255Y-96095222D01*
X127462685Y-96094223D01*
X127474951Y-96090497D01*
X127479201Y-96088857D01*
X127490639Y-96086727D01*
X127500541Y-96080623D01*
X127500547Y-96080621D01*
X127511779Y-96073697D01*
X127528150Y-96065192D01*
X127550968Y-96055389D01*
X127555877Y-96051357D01*
X127558072Y-96049162D01*
X127558076Y-96049159D01*
X127560331Y-96047114D01*
X127560470Y-96047267D01*
X127569781Y-96039906D01*
X127576539Y-96033778D01*
X127586442Y-96027674D01*
X127603125Y-96005735D01*
X127614326Y-95992908D01*
X128063345Y-95543889D01*
X128125657Y-95509863D01*
X128190538Y-95512882D01*
X128251354Y-95532174D01*
X128414736Y-95550500D01*
X128977830Y-95550500D01*
X129133934Y-95535194D01*
X129334910Y-95474516D01*
X129399165Y-95440351D01*
X129514826Y-95378853D01*
X129514828Y-95378851D01*
X129520272Y-95375957D01*
X129626416Y-95289388D01*
X129678186Y-95247166D01*
X129678189Y-95247163D01*
X129682961Y-95243271D01*
X129713849Y-95205934D01*
X129812850Y-95086263D01*
X129812852Y-95086259D01*
X129816779Y-95081513D01*
X129916630Y-94896843D01*
X129978710Y-94696295D01*
X129980259Y-94681562D01*
X130000010Y-94493638D01*
X130000010Y-94493637D01*
X130000654Y-94487510D01*
X129981627Y-94278438D01*
X129922353Y-94077043D01*
X129858603Y-93955100D01*
X129827945Y-93896456D01*
X129827944Y-93896455D01*
X129825091Y-93890997D01*
X129693544Y-93727386D01*
X129532724Y-93592442D01*
X129527332Y-93589478D01*
X129527328Y-93589475D01*
X129354152Y-93494271D01*
X129348755Y-93491304D01*
X129148646Y-93427826D01*
X129142529Y-93427140D01*
X129142525Y-93427139D01*
X129064608Y-93418400D01*
X128985264Y-93409500D01*
X128422170Y-93409500D01*
X128266066Y-93424806D01*
X128110205Y-93471863D01*
X128039212Y-93472404D01*
X127979195Y-93434476D01*
X127949211Y-93370122D01*
X127958779Y-93299773D01*
X127984693Y-93262146D01*
X128211452Y-93035387D01*
X128273764Y-93001361D01*
X128314591Y-92999267D01*
X128414736Y-93010500D01*
X128977830Y-93010500D01*
X129133934Y-92995194D01*
X129334910Y-92934516D01*
X129374347Y-92913547D01*
X129514826Y-92838853D01*
X129514828Y-92838851D01*
X129520272Y-92835957D01*
X129580308Y-92786993D01*
X129678186Y-92707166D01*
X129678189Y-92707163D01*
X129682961Y-92703271D01*
X129778211Y-92588134D01*
X129812850Y-92546263D01*
X129812852Y-92546259D01*
X129816779Y-92541513D01*
X129916630Y-92356843D01*
X129978710Y-92156295D01*
X129980259Y-92141562D01*
X130000010Y-91953638D01*
X130000010Y-91953637D01*
X130000654Y-91947510D01*
X129981627Y-91738438D01*
X129922353Y-91537043D01*
X129892261Y-91479482D01*
X129878426Y-91409848D01*
X129904435Y-91343787D01*
X129914827Y-91332012D01*
X131980120Y-89266719D01*
X131991212Y-89256862D01*
X131995997Y-89253090D01*
X132061877Y-89226627D01*
X132131606Y-89239982D01*
G37*
%TD.AperFunction*%
%TD*%
M02*
