%TF.GenerationSoftware,KiCad,Pcbnew,(6.0.2)*%
%TF.CreationDate,2022-03-13T08:59:08-04:00*%
%TF.ProjectId,ArduinoConnector,41726475-696e-46f4-936f-6e6e6563746f,v1*%
%TF.SameCoordinates,Original*%
%TF.FileFunction,Copper,L2,Bot*%
%TF.FilePolarity,Positive*%
%FSLAX46Y46*%
G04 Gerber Fmt 4.6, Leading zero omitted, Abs format (unit mm)*
G04 Created by KiCad (PCBNEW (6.0.2)) date 2022-03-13 08:59:08*
%MOMM*%
%LPD*%
G01*
G04 APERTURE LIST*
G04 Aperture macros list*
%AMRoundRect*
0 Rectangle with rounded corners*
0 $1 Rounding radius*
0 $2 $3 $4 $5 $6 $7 $8 $9 X,Y pos of 4 corners*
0 Add a 4 corners polygon primitive as box body*
4,1,4,$2,$3,$4,$5,$6,$7,$8,$9,$2,$3,0*
0 Add four circle primitives for the rounded corners*
1,1,$1+$1,$2,$3*
1,1,$1+$1,$4,$5*
1,1,$1+$1,$6,$7*
1,1,$1+$1,$8,$9*
0 Add four rect primitives between the rounded corners*
20,1,$1+$1,$2,$3,$4,$5,0*
20,1,$1+$1,$4,$5,$6,$7,0*
20,1,$1+$1,$6,$7,$8,$9,0*
20,1,$1+$1,$8,$9,$2,$3,0*%
G04 Aperture macros list end*
%TA.AperFunction,ComponentPad*%
%ADD10R,1.700000X1.700000*%
%TD*%
%TA.AperFunction,ComponentPad*%
%ADD11O,1.700000X1.700000*%
%TD*%
%TA.AperFunction,ComponentPad*%
%ADD12RoundRect,0.250000X-0.845000X0.620000X-0.845000X-0.620000X0.845000X-0.620000X0.845000X0.620000X0*%
%TD*%
%TA.AperFunction,ComponentPad*%
%ADD13O,2.190000X1.740000*%
%TD*%
%TA.AperFunction,ViaPad*%
%ADD14C,0.685800*%
%TD*%
G04 APERTURE END LIST*
D10*
%TO.P,J1,1,Pin_1*%
%TO.N,/POWER*%
X120225000Y-91975000D03*
D11*
%TO.P,J1,2,Pin_2*%
%TO.N,unconnected-(J1-Pad2)*%
X122765000Y-91975000D03*
%TO.P,J1,3,Pin_3*%
%TO.N,/SENSE*%
X120225000Y-94515000D03*
%TO.P,J1,4,Pin_4*%
%TO.N,+5V*%
X122765000Y-94515000D03*
%TO.P,J1,5,Pin_5*%
%TO.N,/PWM*%
X120225000Y-97055000D03*
%TO.P,J1,6,Pin_6*%
%TO.N,GND*%
X122765000Y-97055000D03*
%TD*%
D12*
%TO.P,J2,1,Pin_1*%
%TO.N,/FAN_GND*%
X128700000Y-89400000D03*
D13*
%TO.P,J2,2,Pin_2*%
%TO.N,+5V*%
X128700000Y-91940000D03*
%TO.P,J2,3,Pin_3*%
%TO.N,/SENSE*%
X128700000Y-94480000D03*
%TO.P,J2,4,Pin_4*%
%TO.N,/PWM*%
X128700000Y-97020000D03*
%TD*%
D14*
%TO.N,GND*%
X125000000Y-97600000D03*
X125000000Y-96600000D03*
X125000000Y-91300000D03*
X125000000Y-92500000D03*
X125000000Y-93700000D03*
X125700000Y-86800000D03*
%TD*%
%TA.AperFunction,Conductor*%
%TO.N,GND*%
G36*
X132142121Y-80620002D02*
G01*
X132188614Y-80673658D01*
X132200000Y-80726000D01*
X132200000Y-98674000D01*
X132179998Y-98742121D01*
X132126342Y-98788614D01*
X132074000Y-98800000D01*
X118626000Y-98800000D01*
X118557879Y-98779998D01*
X118511386Y-98726342D01*
X118500000Y-98674000D01*
X118500000Y-97040262D01*
X119169520Y-97040262D01*
X119170036Y-97046406D01*
X119185982Y-97236295D01*
X119186759Y-97245553D01*
X119188458Y-97251478D01*
X119237629Y-97422957D01*
X119243544Y-97443586D01*
X119246359Y-97449063D01*
X119246360Y-97449066D01*
X119334897Y-97621341D01*
X119337712Y-97626818D01*
X119465677Y-97788270D01*
X119470370Y-97792264D01*
X119470371Y-97792265D01*
X119544541Y-97855388D01*
X119622564Y-97921791D01*
X119627942Y-97924797D01*
X119627944Y-97924798D01*
X119658387Y-97941812D01*
X119802398Y-98022297D01*
X119897238Y-98053113D01*
X119992471Y-98084056D01*
X119992475Y-98084057D01*
X119998329Y-98085959D01*
X120202894Y-98110351D01*
X120209029Y-98109879D01*
X120209031Y-98109879D01*
X120265039Y-98105569D01*
X120408300Y-98094546D01*
X120414230Y-98092890D01*
X120414232Y-98092890D01*
X120600797Y-98040800D01*
X120600796Y-98040800D01*
X120606725Y-98039145D01*
X120612214Y-98036372D01*
X120612220Y-98036370D01*
X120785116Y-97949033D01*
X120790610Y-97946258D01*
X120806345Y-97933965D01*
X120948101Y-97823213D01*
X120952951Y-97819424D01*
X120988257Y-97778522D01*
X121083540Y-97668134D01*
X121083540Y-97668133D01*
X121087564Y-97663472D01*
X121108387Y-97626818D01*
X121126056Y-97595714D01*
X121189323Y-97484344D01*
X121198271Y-97457444D01*
X121213496Y-97411678D01*
X121253978Y-97353354D01*
X121319566Y-97326175D01*
X121389437Y-97338770D01*
X121441406Y-97387141D01*
X121455971Y-97423751D01*
X121463564Y-97457444D01*
X121466645Y-97467275D01*
X121546770Y-97664603D01*
X121551413Y-97673794D01*
X121662694Y-97855388D01*
X121668777Y-97863699D01*
X121808213Y-98024667D01*
X121815580Y-98031883D01*
X121979434Y-98167916D01*
X121987881Y-98173831D01*
X122171756Y-98281279D01*
X122181042Y-98285729D01*
X122380001Y-98361703D01*
X122389899Y-98364579D01*
X122493250Y-98385606D01*
X122507299Y-98384410D01*
X122511000Y-98374065D01*
X122511000Y-98373517D01*
X123019000Y-98373517D01*
X123023064Y-98387359D01*
X123036478Y-98389393D01*
X123043184Y-98388534D01*
X123053262Y-98386392D01*
X123257255Y-98325191D01*
X123266842Y-98321433D01*
X123458095Y-98227739D01*
X123466945Y-98222464D01*
X123640328Y-98098792D01*
X123648200Y-98092139D01*
X123799052Y-97941812D01*
X123805730Y-97933965D01*
X123930003Y-97761020D01*
X123935313Y-97752183D01*
X124029670Y-97561267D01*
X124033469Y-97551672D01*
X124095377Y-97347910D01*
X124097555Y-97337837D01*
X124098986Y-97326962D01*
X124096775Y-97312778D01*
X124083617Y-97309000D01*
X123037115Y-97309000D01*
X123021876Y-97313475D01*
X123020671Y-97314865D01*
X123019000Y-97322548D01*
X123019000Y-98373517D01*
X122511000Y-98373517D01*
X122511000Y-97012490D01*
X127399346Y-97012490D01*
X127418373Y-97221562D01*
X127420111Y-97227468D01*
X127420112Y-97227472D01*
X127445834Y-97314865D01*
X127477647Y-97422957D01*
X127574909Y-97609003D01*
X127706456Y-97772614D01*
X127867276Y-97907558D01*
X127872668Y-97910522D01*
X127872672Y-97910525D01*
X128045848Y-98005729D01*
X128051245Y-98008696D01*
X128251354Y-98072174D01*
X128257471Y-98072860D01*
X128257475Y-98072861D01*
X128335392Y-98081600D01*
X128414736Y-98090500D01*
X128977830Y-98090500D01*
X129133934Y-98075194D01*
X129334910Y-98014516D01*
X129351436Y-98005729D01*
X129514826Y-97918853D01*
X129514828Y-97918851D01*
X129520272Y-97915957D01*
X129594537Y-97855388D01*
X129678186Y-97787166D01*
X129678189Y-97787163D01*
X129682961Y-97783271D01*
X129686890Y-97778522D01*
X129812850Y-97626263D01*
X129812852Y-97626259D01*
X129816779Y-97621513D01*
X129916630Y-97436843D01*
X129978710Y-97236295D01*
X129980259Y-97221562D01*
X130000010Y-97033638D01*
X130000010Y-97033637D01*
X130000654Y-97027510D01*
X129991507Y-96927000D01*
X129982186Y-96824577D01*
X129982185Y-96824574D01*
X129981627Y-96818438D01*
X129975326Y-96797027D01*
X129931261Y-96647310D01*
X129922353Y-96617043D01*
X129873722Y-96524020D01*
X129827945Y-96436456D01*
X129827944Y-96436455D01*
X129825091Y-96430997D01*
X129693544Y-96267386D01*
X129532724Y-96132442D01*
X129527332Y-96129478D01*
X129527328Y-96129475D01*
X129354152Y-96034271D01*
X129348755Y-96031304D01*
X129148646Y-95967826D01*
X129142529Y-95967140D01*
X129142525Y-95967139D01*
X129064608Y-95958400D01*
X128985264Y-95949500D01*
X128422170Y-95949500D01*
X128266066Y-95964806D01*
X128065090Y-96025484D01*
X128059649Y-96028377D01*
X127885174Y-96121147D01*
X127885172Y-96121149D01*
X127879728Y-96124043D01*
X127874949Y-96127941D01*
X127721814Y-96252834D01*
X127721811Y-96252837D01*
X127717039Y-96256729D01*
X127713112Y-96261476D01*
X127713110Y-96261478D01*
X127587150Y-96413737D01*
X127587148Y-96413741D01*
X127583221Y-96418487D01*
X127483370Y-96603157D01*
X127421290Y-96803705D01*
X127420646Y-96809830D01*
X127420646Y-96809831D01*
X127416427Y-96849970D01*
X127399346Y-97012490D01*
X122511000Y-97012490D01*
X122511000Y-96927000D01*
X122531002Y-96858879D01*
X122584658Y-96812386D01*
X122637000Y-96801000D01*
X124083344Y-96801000D01*
X124096875Y-96797027D01*
X124098180Y-96787947D01*
X124056214Y-96620875D01*
X124052894Y-96611124D01*
X123967972Y-96415814D01*
X123963105Y-96406739D01*
X123847426Y-96227926D01*
X123841136Y-96219757D01*
X123697806Y-96062240D01*
X123690273Y-96055215D01*
X123523139Y-95923222D01*
X123514552Y-95917517D01*
X123328117Y-95814599D01*
X123318705Y-95810369D01*
X123127031Y-95742493D01*
X123069495Y-95700899D01*
X123043579Y-95634801D01*
X123057513Y-95565185D01*
X123106872Y-95514154D01*
X123135206Y-95502362D01*
X123140790Y-95500803D01*
X123140799Y-95500800D01*
X123146725Y-95499145D01*
X123152214Y-95496372D01*
X123152220Y-95496370D01*
X123325116Y-95409033D01*
X123330610Y-95406258D01*
X123376347Y-95370525D01*
X123488101Y-95283213D01*
X123492951Y-95279424D01*
X123528257Y-95238522D01*
X123623540Y-95128134D01*
X123623540Y-95128133D01*
X123627564Y-95123472D01*
X123648387Y-95086818D01*
X123726276Y-94949707D01*
X123729323Y-94944344D01*
X123794351Y-94748863D01*
X123820171Y-94544474D01*
X123820583Y-94515000D01*
X123816415Y-94472490D01*
X127399346Y-94472490D01*
X127418373Y-94681562D01*
X127420111Y-94687468D01*
X127420112Y-94687472D01*
X127436380Y-94742744D01*
X127477647Y-94882957D01*
X127574909Y-95069003D01*
X127706456Y-95232614D01*
X127867276Y-95367558D01*
X127872668Y-95370522D01*
X127872672Y-95370525D01*
X128045848Y-95465729D01*
X128051245Y-95468696D01*
X128251354Y-95532174D01*
X128257471Y-95532860D01*
X128257475Y-95532861D01*
X128335392Y-95541600D01*
X128414736Y-95550500D01*
X128977830Y-95550500D01*
X129133934Y-95535194D01*
X129334910Y-95474516D01*
X129351436Y-95465729D01*
X129514826Y-95378853D01*
X129514828Y-95378851D01*
X129520272Y-95375957D01*
X129580308Y-95326993D01*
X129678186Y-95247166D01*
X129678189Y-95247163D01*
X129682961Y-95243271D01*
X129686890Y-95238522D01*
X129812850Y-95086263D01*
X129812852Y-95086259D01*
X129816779Y-95081513D01*
X129916630Y-94896843D01*
X129978710Y-94696295D01*
X129980259Y-94681562D01*
X130000010Y-94493638D01*
X130000010Y-94493637D01*
X130000654Y-94487510D01*
X129981627Y-94278438D01*
X129922353Y-94077043D01*
X129873722Y-93984020D01*
X129827945Y-93896456D01*
X129827944Y-93896455D01*
X129825091Y-93890997D01*
X129693544Y-93727386D01*
X129532724Y-93592442D01*
X129527332Y-93589478D01*
X129527328Y-93589475D01*
X129354152Y-93494271D01*
X129348755Y-93491304D01*
X129148646Y-93427826D01*
X129142529Y-93427140D01*
X129142525Y-93427139D01*
X129064608Y-93418400D01*
X128985264Y-93409500D01*
X128422170Y-93409500D01*
X128266066Y-93424806D01*
X128065090Y-93485484D01*
X128059649Y-93488377D01*
X127885174Y-93581147D01*
X127885172Y-93581149D01*
X127879728Y-93584043D01*
X127874949Y-93587941D01*
X127721814Y-93712834D01*
X127721811Y-93712837D01*
X127717039Y-93716729D01*
X127713112Y-93721476D01*
X127713110Y-93721478D01*
X127587150Y-93873737D01*
X127587148Y-93873741D01*
X127583221Y-93878487D01*
X127483370Y-94063157D01*
X127421290Y-94263705D01*
X127420646Y-94269830D01*
X127420646Y-94269831D01*
X127417048Y-94304068D01*
X127399346Y-94472490D01*
X123816415Y-94472490D01*
X123800480Y-94309970D01*
X123740935Y-94112749D01*
X123644218Y-93930849D01*
X123570859Y-93840902D01*
X123517906Y-93775975D01*
X123517903Y-93775972D01*
X123514011Y-93771200D01*
X123496786Y-93756950D01*
X123360025Y-93643811D01*
X123360021Y-93643809D01*
X123355275Y-93639882D01*
X123174055Y-93541897D01*
X122977254Y-93480977D01*
X122971129Y-93480333D01*
X122971128Y-93480333D01*
X122778498Y-93460087D01*
X122778496Y-93460087D01*
X122772369Y-93459443D01*
X122685529Y-93467346D01*
X122573342Y-93477555D01*
X122573339Y-93477556D01*
X122567203Y-93478114D01*
X122369572Y-93536280D01*
X122187002Y-93631726D01*
X122182201Y-93635586D01*
X122182198Y-93635588D01*
X122072951Y-93723425D01*
X122026447Y-93760815D01*
X121894024Y-93918630D01*
X121891056Y-93924028D01*
X121891053Y-93924033D01*
X121884315Y-93936290D01*
X121794776Y-94099162D01*
X121792913Y-94105035D01*
X121737907Y-94278438D01*
X121732484Y-94295532D01*
X121731798Y-94301649D01*
X121731797Y-94301653D01*
X121713322Y-94466362D01*
X121709520Y-94500262D01*
X121710036Y-94506406D01*
X121725982Y-94696295D01*
X121726759Y-94705553D01*
X121728458Y-94711478D01*
X121777629Y-94882957D01*
X121783544Y-94903586D01*
X121786359Y-94909063D01*
X121786360Y-94909066D01*
X121874897Y-95081341D01*
X121877712Y-95086818D01*
X122005677Y-95248270D01*
X122162564Y-95381791D01*
X122342398Y-95482297D01*
X122407437Y-95503429D01*
X122466042Y-95543502D01*
X122493680Y-95608898D01*
X122481574Y-95678855D01*
X122433568Y-95731162D01*
X122407646Y-95743027D01*
X122241868Y-95797212D01*
X122232359Y-95801209D01*
X122043463Y-95899542D01*
X122034738Y-95905036D01*
X121864433Y-96032905D01*
X121856726Y-96039748D01*
X121709590Y-96193717D01*
X121703104Y-96201727D01*
X121583098Y-96377649D01*
X121578000Y-96386623D01*
X121488338Y-96579783D01*
X121484775Y-96589470D01*
X121456012Y-96693185D01*
X121418533Y-96753483D01*
X121354405Y-96783946D01*
X121283986Y-96774903D01*
X121229636Y-96729224D01*
X121213973Y-96695933D01*
X121213143Y-96693185D01*
X121200935Y-96652749D01*
X121104218Y-96470849D01*
X121028206Y-96377649D01*
X120977906Y-96315975D01*
X120977903Y-96315972D01*
X120974011Y-96311200D01*
X120956786Y-96296950D01*
X120820025Y-96183811D01*
X120820021Y-96183809D01*
X120815275Y-96179882D01*
X120634055Y-96081897D01*
X120437254Y-96020977D01*
X120431129Y-96020333D01*
X120431128Y-96020333D01*
X120238498Y-96000087D01*
X120238496Y-96000087D01*
X120232369Y-95999443D01*
X120145529Y-96007346D01*
X120033342Y-96017555D01*
X120033339Y-96017556D01*
X120027203Y-96018114D01*
X119829572Y-96076280D01*
X119647002Y-96171726D01*
X119642201Y-96175586D01*
X119642198Y-96175588D01*
X119532951Y-96263425D01*
X119486447Y-96300815D01*
X119354024Y-96458630D01*
X119351056Y-96464028D01*
X119351053Y-96464033D01*
X119344315Y-96476290D01*
X119254776Y-96639162D01*
X119252913Y-96645035D01*
X119197907Y-96818438D01*
X119192484Y-96835532D01*
X119191798Y-96841649D01*
X119191797Y-96841653D01*
X119189865Y-96858879D01*
X119169520Y-97040262D01*
X118500000Y-97040262D01*
X118500000Y-94500262D01*
X119169520Y-94500262D01*
X119170036Y-94506406D01*
X119185982Y-94696295D01*
X119186759Y-94705553D01*
X119188458Y-94711478D01*
X119237629Y-94882957D01*
X119243544Y-94903586D01*
X119246359Y-94909063D01*
X119246360Y-94909066D01*
X119334897Y-95081341D01*
X119337712Y-95086818D01*
X119465677Y-95248270D01*
X119622564Y-95381791D01*
X119802398Y-95482297D01*
X119897238Y-95513112D01*
X119992471Y-95544056D01*
X119992475Y-95544057D01*
X119998329Y-95545959D01*
X120202894Y-95570351D01*
X120209029Y-95569879D01*
X120209031Y-95569879D01*
X120265039Y-95565569D01*
X120408300Y-95554546D01*
X120414230Y-95552890D01*
X120414232Y-95552890D01*
X120538104Y-95518304D01*
X120606725Y-95499145D01*
X120612214Y-95496372D01*
X120612220Y-95496370D01*
X120785116Y-95409033D01*
X120790610Y-95406258D01*
X120836347Y-95370525D01*
X120948101Y-95283213D01*
X120952951Y-95279424D01*
X120988257Y-95238522D01*
X121083540Y-95128134D01*
X121083540Y-95128133D01*
X121087564Y-95123472D01*
X121108387Y-95086818D01*
X121186276Y-94949707D01*
X121189323Y-94944344D01*
X121254351Y-94748863D01*
X121280171Y-94544474D01*
X121280583Y-94515000D01*
X121260480Y-94309970D01*
X121200935Y-94112749D01*
X121104218Y-93930849D01*
X121030859Y-93840902D01*
X120977906Y-93775975D01*
X120977903Y-93775972D01*
X120974011Y-93771200D01*
X120956786Y-93756950D01*
X120820025Y-93643811D01*
X120820021Y-93643809D01*
X120815275Y-93639882D01*
X120634055Y-93541897D01*
X120437254Y-93480977D01*
X120431129Y-93480333D01*
X120431128Y-93480333D01*
X120238498Y-93460087D01*
X120238496Y-93460087D01*
X120232369Y-93459443D01*
X120145529Y-93467346D01*
X120033342Y-93477555D01*
X120033339Y-93477556D01*
X120027203Y-93478114D01*
X119829572Y-93536280D01*
X119647002Y-93631726D01*
X119642201Y-93635586D01*
X119642198Y-93635588D01*
X119532951Y-93723425D01*
X119486447Y-93760815D01*
X119354024Y-93918630D01*
X119351056Y-93924028D01*
X119351053Y-93924033D01*
X119344315Y-93936290D01*
X119254776Y-94099162D01*
X119252913Y-94105035D01*
X119197907Y-94278438D01*
X119192484Y-94295532D01*
X119191798Y-94301649D01*
X119191797Y-94301653D01*
X119173322Y-94466362D01*
X119169520Y-94500262D01*
X118500000Y-94500262D01*
X118500000Y-92844748D01*
X119174500Y-92844748D01*
X119175707Y-92850816D01*
X119179331Y-92869033D01*
X119186133Y-92903231D01*
X119230448Y-92969552D01*
X119296769Y-93013867D01*
X119308938Y-93016288D01*
X119308939Y-93016288D01*
X119349184Y-93024293D01*
X119355252Y-93025500D01*
X121094748Y-93025500D01*
X121100816Y-93024293D01*
X121141061Y-93016288D01*
X121141062Y-93016288D01*
X121153231Y-93013867D01*
X121219552Y-92969552D01*
X121263867Y-92903231D01*
X121270670Y-92869033D01*
X121274293Y-92850816D01*
X121275500Y-92844748D01*
X121275500Y-91960262D01*
X121709520Y-91960262D01*
X121710036Y-91966406D01*
X121725982Y-92156295D01*
X121726759Y-92165553D01*
X121728458Y-92171478D01*
X121777629Y-92342957D01*
X121783544Y-92363586D01*
X121786359Y-92369063D01*
X121786360Y-92369066D01*
X121874897Y-92541341D01*
X121877712Y-92546818D01*
X122005677Y-92708270D01*
X122162564Y-92841791D01*
X122342398Y-92942297D01*
X122426280Y-92969552D01*
X122532471Y-93004056D01*
X122532475Y-93004057D01*
X122538329Y-93005959D01*
X122742894Y-93030351D01*
X122749029Y-93029879D01*
X122749031Y-93029879D01*
X122821625Y-93024293D01*
X122948300Y-93014546D01*
X122954230Y-93012890D01*
X122954232Y-93012890D01*
X123140797Y-92960800D01*
X123140796Y-92960800D01*
X123146725Y-92959145D01*
X123152214Y-92956372D01*
X123152220Y-92956370D01*
X123325116Y-92869033D01*
X123330610Y-92866258D01*
X123376347Y-92830525D01*
X123488101Y-92743213D01*
X123492951Y-92739424D01*
X123528257Y-92698522D01*
X123623540Y-92588134D01*
X123623540Y-92588133D01*
X123627564Y-92583472D01*
X123648387Y-92546818D01*
X123726276Y-92409707D01*
X123729323Y-92404344D01*
X123794351Y-92208863D01*
X123820171Y-92004474D01*
X123820583Y-91975000D01*
X123816415Y-91932490D01*
X127399346Y-91932490D01*
X127418373Y-92141562D01*
X127420111Y-92147468D01*
X127420112Y-92147472D01*
X127436380Y-92202744D01*
X127477647Y-92342957D01*
X127574909Y-92529003D01*
X127706456Y-92692614D01*
X127867276Y-92827558D01*
X127872668Y-92830522D01*
X127872672Y-92830525D01*
X127982787Y-92891061D01*
X128051245Y-92928696D01*
X128251354Y-92992174D01*
X128257471Y-92992860D01*
X128257475Y-92992861D01*
X128335392Y-93001600D01*
X128414736Y-93010500D01*
X128977830Y-93010500D01*
X129133934Y-92995194D01*
X129334910Y-92934516D01*
X129374347Y-92913547D01*
X129514826Y-92838853D01*
X129514828Y-92838851D01*
X129520272Y-92835957D01*
X129580308Y-92786993D01*
X129678186Y-92707166D01*
X129678189Y-92707163D01*
X129682961Y-92703271D01*
X129686890Y-92698522D01*
X129812850Y-92546263D01*
X129812852Y-92546259D01*
X129816779Y-92541513D01*
X129916630Y-92356843D01*
X129978710Y-92156295D01*
X129980259Y-92141562D01*
X130000010Y-91953638D01*
X130000010Y-91953637D01*
X130000654Y-91947510D01*
X129981627Y-91738438D01*
X129922353Y-91537043D01*
X129873722Y-91444020D01*
X129827945Y-91356456D01*
X129827944Y-91356455D01*
X129825091Y-91350997D01*
X129693544Y-91187386D01*
X129532724Y-91052442D01*
X129527332Y-91049478D01*
X129527328Y-91049475D01*
X129354152Y-90954271D01*
X129348755Y-90951304D01*
X129148646Y-90887826D01*
X129142529Y-90887140D01*
X129142525Y-90887139D01*
X129064608Y-90878400D01*
X128985264Y-90869500D01*
X128422170Y-90869500D01*
X128266066Y-90884806D01*
X128065090Y-90945484D01*
X128059649Y-90948377D01*
X127885174Y-91041147D01*
X127885172Y-91041149D01*
X127879728Y-91044043D01*
X127874949Y-91047941D01*
X127721814Y-91172834D01*
X127721811Y-91172837D01*
X127717039Y-91176729D01*
X127713112Y-91181476D01*
X127713110Y-91181478D01*
X127587150Y-91333737D01*
X127587148Y-91333741D01*
X127583221Y-91338487D01*
X127483370Y-91523157D01*
X127421290Y-91723705D01*
X127420646Y-91729830D01*
X127420646Y-91729831D01*
X127417048Y-91764068D01*
X127399346Y-91932490D01*
X123816415Y-91932490D01*
X123800480Y-91769970D01*
X123740935Y-91572749D01*
X123644218Y-91390849D01*
X123570859Y-91300902D01*
X123517906Y-91235975D01*
X123517903Y-91235972D01*
X123514011Y-91231200D01*
X123496786Y-91216950D01*
X123360025Y-91103811D01*
X123360021Y-91103809D01*
X123355275Y-91099882D01*
X123174055Y-91001897D01*
X122977254Y-90940977D01*
X122971129Y-90940333D01*
X122971128Y-90940333D01*
X122778498Y-90920087D01*
X122778496Y-90920087D01*
X122772369Y-90919443D01*
X122685529Y-90927346D01*
X122573342Y-90937555D01*
X122573339Y-90937556D01*
X122567203Y-90938114D01*
X122369572Y-90996280D01*
X122187002Y-91091726D01*
X122182201Y-91095586D01*
X122182198Y-91095588D01*
X122072951Y-91183425D01*
X122026447Y-91220815D01*
X121894024Y-91378630D01*
X121891056Y-91384028D01*
X121891053Y-91384033D01*
X121884315Y-91396290D01*
X121794776Y-91559162D01*
X121792913Y-91565035D01*
X121737907Y-91738438D01*
X121732484Y-91755532D01*
X121731798Y-91761649D01*
X121731797Y-91761653D01*
X121713322Y-91926362D01*
X121709520Y-91960262D01*
X121275500Y-91960262D01*
X121275500Y-91105252D01*
X121263867Y-91046769D01*
X121219552Y-90980448D01*
X121153231Y-90936133D01*
X121141062Y-90933712D01*
X121141061Y-90933712D01*
X121100816Y-90925707D01*
X121094748Y-90924500D01*
X119355252Y-90924500D01*
X119349184Y-90925707D01*
X119308939Y-90933712D01*
X119308938Y-90933712D01*
X119296769Y-90936133D01*
X119230448Y-90980448D01*
X119186133Y-91046769D01*
X119174500Y-91105252D01*
X119174500Y-92844748D01*
X118500000Y-92844748D01*
X118500000Y-90326000D01*
X118520002Y-90257879D01*
X118573658Y-90211386D01*
X118626000Y-90200000D01*
X124694123Y-90200000D01*
X124731258Y-90200033D01*
X124731260Y-90200033D01*
X124745449Y-90200045D01*
X124758242Y-90193902D01*
X124763210Y-90192773D01*
X124770535Y-90190215D01*
X124775125Y-90188006D01*
X124788962Y-90184850D01*
X124800061Y-90176006D01*
X124804985Y-90173636D01*
X124810647Y-90170084D01*
X124814916Y-90166688D01*
X124827705Y-90160547D01*
X124836568Y-90149464D01*
X124840554Y-90146293D01*
X124846048Y-90140809D01*
X124849227Y-90136827D01*
X124860323Y-90127985D01*
X124866486Y-90115207D01*
X124869896Y-90110936D01*
X124873454Y-90105286D01*
X124875832Y-90100366D01*
X124884694Y-90089285D01*
X124887874Y-90075457D01*
X124888658Y-90073834D01*
X127404500Y-90073834D01*
X127407481Y-90105369D01*
X127452366Y-90233184D01*
X127457958Y-90240754D01*
X127457959Y-90240757D01*
X127470606Y-90257879D01*
X127532850Y-90342150D01*
X127540421Y-90347742D01*
X127634243Y-90417041D01*
X127634246Y-90417042D01*
X127641816Y-90422634D01*
X127769631Y-90467519D01*
X127777277Y-90468242D01*
X127777278Y-90468242D01*
X127783248Y-90468806D01*
X127801166Y-90470500D01*
X129598834Y-90470500D01*
X129616752Y-90468806D01*
X129622722Y-90468242D01*
X129622723Y-90468242D01*
X129630369Y-90467519D01*
X129758184Y-90422634D01*
X129765754Y-90417042D01*
X129765757Y-90417041D01*
X129859579Y-90347742D01*
X129867150Y-90342150D01*
X129929394Y-90257879D01*
X129942041Y-90240757D01*
X129942042Y-90240754D01*
X129947634Y-90233184D01*
X129992519Y-90105369D01*
X129995500Y-90073834D01*
X129995500Y-88726166D01*
X129992519Y-88694631D01*
X129947634Y-88566816D01*
X129942042Y-88559246D01*
X129942041Y-88559243D01*
X129872742Y-88465421D01*
X129867150Y-88457850D01*
X129850206Y-88445335D01*
X129765757Y-88382959D01*
X129765754Y-88382958D01*
X129758184Y-88377366D01*
X129630369Y-88332481D01*
X129622723Y-88331758D01*
X129622722Y-88331758D01*
X129616752Y-88331194D01*
X129598834Y-88329500D01*
X127801166Y-88329500D01*
X127783248Y-88331194D01*
X127777278Y-88331758D01*
X127777277Y-88331758D01*
X127769631Y-88332481D01*
X127641816Y-88377366D01*
X127634246Y-88382958D01*
X127634243Y-88382959D01*
X127549794Y-88445335D01*
X127532850Y-88457850D01*
X127527258Y-88465421D01*
X127457959Y-88559243D01*
X127457958Y-88559246D01*
X127452366Y-88566816D01*
X127407481Y-88694631D01*
X127404500Y-88726166D01*
X127404500Y-90073834D01*
X124888658Y-90073834D01*
X124890088Y-90070876D01*
X124892661Y-90063551D01*
X124893799Y-90058580D01*
X124899965Y-90045798D01*
X124899985Y-90022787D01*
X124901997Y-90022789D01*
X124902012Y-90022723D01*
X124900000Y-90022723D01*
X124900000Y-90005877D01*
X124900045Y-89954551D01*
X124904850Y-89954555D01*
X124904856Y-89954457D01*
X124900000Y-89954457D01*
X124900000Y-80726000D01*
X124920002Y-80657879D01*
X124973658Y-80611386D01*
X125026000Y-80600000D01*
X132074000Y-80600000D01*
X132142121Y-80620002D01*
G37*
%TD.AperFunction*%
%TD*%
M02*
