%TF.GenerationSoftware,KiCad,Pcbnew,(6.0.2)*%
%TF.CreationDate,2022-03-17T11:38:07-04:00*%
%TF.ProjectId,ArduinoConnector,41726475-696e-46f4-936f-6e6e6563746f,v1*%
%TF.SameCoordinates,Original*%
%TF.FileFunction,Copper,L2,Bot*%
%TF.FilePolarity,Positive*%
%FSLAX46Y46*%
G04 Gerber Fmt 4.6, Leading zero omitted, Abs format (unit mm)*
G04 Created by KiCad (PCBNEW (6.0.2)) date 2022-03-17 11:38:07*
%MOMM*%
%LPD*%
G01*
G04 APERTURE LIST*
G04 Aperture macros list*
%AMRoundRect*
0 Rectangle with rounded corners*
0 $1 Rounding radius*
0 $2 $3 $4 $5 $6 $7 $8 $9 X,Y pos of 4 corners*
0 Add a 4 corners polygon primitive as box body*
4,1,4,$2,$3,$4,$5,$6,$7,$8,$9,$2,$3,0*
0 Add four circle primitives for the rounded corners*
1,1,$1+$1,$2,$3*
1,1,$1+$1,$4,$5*
1,1,$1+$1,$6,$7*
1,1,$1+$1,$8,$9*
0 Add four rect primitives between the rounded corners*
20,1,$1+$1,$2,$3,$4,$5,0*
20,1,$1+$1,$4,$5,$6,$7,0*
20,1,$1+$1,$6,$7,$8,$9,0*
20,1,$1+$1,$8,$9,$2,$3,0*%
G04 Aperture macros list end*
%TA.AperFunction,ComponentPad*%
%ADD10R,1.700000X1.700000*%
%TD*%
%TA.AperFunction,ComponentPad*%
%ADD11O,1.700000X1.700000*%
%TD*%
%TA.AperFunction,ComponentPad*%
%ADD12RoundRect,0.250000X-0.845000X0.620000X-0.845000X-0.620000X0.845000X-0.620000X0.845000X0.620000X0*%
%TD*%
%TA.AperFunction,ComponentPad*%
%ADD13O,2.190000X1.740000*%
%TD*%
%TA.AperFunction,ViaPad*%
%ADD14C,0.685800*%
%TD*%
%TA.AperFunction,Conductor*%
%ADD15C,0.457200*%
%TD*%
G04 APERTURE END LIST*
D10*
%TO.P,J1,1,Pin_1*%
%TO.N,/POWER*%
X119380000Y-91440000D03*
D11*
%TO.P,J1,2,Pin_2*%
%TO.N,unconnected-(J1-Pad2)*%
X121920000Y-91440000D03*
%TO.P,J1,3,Pin_3*%
%TO.N,/SENSE*%
X119380000Y-93980000D03*
%TO.P,J1,4,Pin_4*%
%TO.N,+5V*%
X121920000Y-93980000D03*
%TO.P,J1,5,Pin_5*%
%TO.N,/PWM*%
X119380000Y-96520000D03*
%TO.P,J1,6,Pin_6*%
%TO.N,GND*%
X121920000Y-96520000D03*
%TD*%
D12*
%TO.P,J2,1,Pin_1*%
%TO.N,/FAN_GND*%
X112980000Y-79190000D03*
D13*
%TO.P,J2,2,Pin_2*%
%TO.N,+5V*%
X112980000Y-81730000D03*
%TO.P,J2,3,Pin_3*%
%TO.N,/SENSE*%
X112980000Y-84270000D03*
%TO.P,J2,4,Pin_4*%
%TO.N,/PWM*%
X112980000Y-86810000D03*
%TD*%
D14*
%TO.N,GND*%
X114900000Y-92200000D03*
X112400000Y-92200000D03*
%TO.N,/FAN_GND*%
X112650000Y-90162500D03*
X111000000Y-96600000D03*
%TD*%
D15*
%TO.N,/FAN_GND*%
X110000000Y-90200000D02*
X112612500Y-90200000D01*
X110000000Y-90200000D02*
X110000000Y-95600000D01*
X110000000Y-80300000D02*
X110000000Y-90200000D01*
X112612500Y-90200000D02*
X112650000Y-90162500D01*
X111110000Y-79190000D02*
X110000000Y-80300000D01*
X110000000Y-95600000D02*
X111000000Y-96600000D01*
X112980000Y-79190000D02*
X111110000Y-79190000D01*
%TD*%
%TA.AperFunction,Conductor*%
%TO.N,GND*%
G36*
X116942121Y-77420002D02*
G01*
X116988614Y-77473658D01*
X117000000Y-77526000D01*
X117000000Y-88894123D01*
X116999955Y-88945449D01*
X117006098Y-88958242D01*
X117007227Y-88963210D01*
X117009785Y-88970535D01*
X117011994Y-88975125D01*
X117015150Y-88988962D01*
X117023994Y-89000061D01*
X117026364Y-89004985D01*
X117029916Y-89010647D01*
X117033312Y-89014916D01*
X117039453Y-89027705D01*
X117050536Y-89036568D01*
X117053707Y-89040554D01*
X117059191Y-89046048D01*
X117063173Y-89049227D01*
X117072015Y-89060323D01*
X117084793Y-89066486D01*
X117089064Y-89069896D01*
X117094714Y-89073454D01*
X117099634Y-89075832D01*
X117110715Y-89084694D01*
X117124543Y-89087874D01*
X117129124Y-89090088D01*
X117136449Y-89092661D01*
X117141420Y-89093799D01*
X117154202Y-89099965D01*
X117177213Y-89099985D01*
X117177211Y-89101997D01*
X117177277Y-89102012D01*
X117177277Y-89100000D01*
X117194123Y-89100000D01*
X117245449Y-89100045D01*
X117245445Y-89104850D01*
X117245543Y-89104856D01*
X117245543Y-89100000D01*
X123574000Y-89100000D01*
X123642121Y-89120002D01*
X123688614Y-89173658D01*
X123700000Y-89226000D01*
X123700000Y-98174000D01*
X123679998Y-98242121D01*
X123626342Y-98288614D01*
X123574000Y-98300000D01*
X109726000Y-98300000D01*
X109657879Y-98279998D01*
X109611386Y-98226342D01*
X109600000Y-98174000D01*
X109600000Y-96111029D01*
X109620002Y-96042908D01*
X109673658Y-95996415D01*
X109743932Y-95986311D01*
X109808512Y-96015805D01*
X109815095Y-96021934D01*
X110430574Y-96637413D01*
X110464600Y-96699725D01*
X110466401Y-96710058D01*
X110470587Y-96741856D01*
X110525341Y-96874044D01*
X110551846Y-96908586D01*
X110607414Y-96981004D01*
X110607417Y-96981007D01*
X110612443Y-96987557D01*
X110725955Y-97074659D01*
X110858144Y-97129413D01*
X111000000Y-97148089D01*
X111141856Y-97129413D01*
X111274045Y-97074659D01*
X111387557Y-96987557D01*
X111392583Y-96981007D01*
X111392586Y-96981004D01*
X111448154Y-96908586D01*
X111474659Y-96874044D01*
X111529413Y-96741856D01*
X111548089Y-96600000D01*
X111535616Y-96505262D01*
X118324520Y-96505262D01*
X118341759Y-96710553D01*
X118343458Y-96716478D01*
X118389395Y-96876678D01*
X118398544Y-96908586D01*
X118401359Y-96914063D01*
X118401360Y-96914066D01*
X118485517Y-97077818D01*
X118492712Y-97091818D01*
X118620677Y-97253270D01*
X118625370Y-97257264D01*
X118625371Y-97257265D01*
X118699541Y-97320388D01*
X118777564Y-97386791D01*
X118782942Y-97389797D01*
X118782944Y-97389798D01*
X118813387Y-97406812D01*
X118957398Y-97487297D01*
X119052238Y-97518113D01*
X119147471Y-97549056D01*
X119147475Y-97549057D01*
X119153329Y-97550959D01*
X119357894Y-97575351D01*
X119364029Y-97574879D01*
X119364031Y-97574879D01*
X119420039Y-97570569D01*
X119563300Y-97559546D01*
X119569230Y-97557890D01*
X119569232Y-97557890D01*
X119755797Y-97505800D01*
X119755796Y-97505800D01*
X119761725Y-97504145D01*
X119767214Y-97501372D01*
X119767220Y-97501370D01*
X119940116Y-97414033D01*
X119945610Y-97411258D01*
X119961345Y-97398965D01*
X120103101Y-97288213D01*
X120107951Y-97284424D01*
X120165992Y-97217183D01*
X120238540Y-97133134D01*
X120238540Y-97133133D01*
X120242564Y-97128472D01*
X120263387Y-97091818D01*
X120281056Y-97060714D01*
X120344323Y-96949344D01*
X120353271Y-96922444D01*
X120368496Y-96876678D01*
X120408978Y-96818354D01*
X120474566Y-96791175D01*
X120544437Y-96803770D01*
X120596406Y-96852141D01*
X120610971Y-96888751D01*
X120618564Y-96922444D01*
X120621645Y-96932275D01*
X120701770Y-97129603D01*
X120706413Y-97138794D01*
X120817694Y-97320388D01*
X120823777Y-97328699D01*
X120963213Y-97489667D01*
X120970580Y-97496883D01*
X121134434Y-97632916D01*
X121142881Y-97638831D01*
X121326756Y-97746279D01*
X121336042Y-97750729D01*
X121535001Y-97826703D01*
X121544899Y-97829579D01*
X121648250Y-97850606D01*
X121662299Y-97849410D01*
X121666000Y-97839065D01*
X121666000Y-97838517D01*
X122174000Y-97838517D01*
X122178064Y-97852359D01*
X122191478Y-97854393D01*
X122198184Y-97853534D01*
X122208262Y-97851392D01*
X122412255Y-97790191D01*
X122421842Y-97786433D01*
X122613095Y-97692739D01*
X122621945Y-97687464D01*
X122795328Y-97563792D01*
X122803200Y-97557139D01*
X122954052Y-97406812D01*
X122960730Y-97398965D01*
X123085003Y-97226020D01*
X123090313Y-97217183D01*
X123184670Y-97026267D01*
X123188469Y-97016672D01*
X123250377Y-96812910D01*
X123252555Y-96802837D01*
X123253986Y-96791962D01*
X123251775Y-96777778D01*
X123238617Y-96774000D01*
X122192115Y-96774000D01*
X122176876Y-96778475D01*
X122175671Y-96779865D01*
X122174000Y-96787548D01*
X122174000Y-97838517D01*
X121666000Y-97838517D01*
X121666000Y-96392000D01*
X121686002Y-96323879D01*
X121739658Y-96277386D01*
X121792000Y-96266000D01*
X123238344Y-96266000D01*
X123251875Y-96262027D01*
X123253180Y-96252947D01*
X123211214Y-96085875D01*
X123207894Y-96076124D01*
X123122972Y-95880814D01*
X123118105Y-95871739D01*
X123002426Y-95692926D01*
X122996136Y-95684757D01*
X122852806Y-95527240D01*
X122845273Y-95520215D01*
X122678139Y-95388222D01*
X122669552Y-95382517D01*
X122483117Y-95279599D01*
X122473705Y-95275369D01*
X122282031Y-95207493D01*
X122224495Y-95165899D01*
X122198579Y-95099801D01*
X122212513Y-95030185D01*
X122261872Y-94979154D01*
X122290206Y-94967362D01*
X122295790Y-94965803D01*
X122295799Y-94965800D01*
X122301725Y-94964145D01*
X122307214Y-94961372D01*
X122307220Y-94961370D01*
X122480116Y-94874033D01*
X122485610Y-94871258D01*
X122647951Y-94744424D01*
X122782564Y-94588472D01*
X122803387Y-94551818D01*
X122881276Y-94414707D01*
X122884323Y-94409344D01*
X122949351Y-94213863D01*
X122975171Y-94009474D01*
X122975583Y-93980000D01*
X122955480Y-93774970D01*
X122895935Y-93577749D01*
X122799218Y-93395849D01*
X122725859Y-93305902D01*
X122672906Y-93240975D01*
X122672903Y-93240972D01*
X122669011Y-93236200D01*
X122651786Y-93221950D01*
X122515025Y-93108811D01*
X122515021Y-93108809D01*
X122510275Y-93104882D01*
X122329055Y-93006897D01*
X122132254Y-92945977D01*
X122126129Y-92945333D01*
X122126128Y-92945333D01*
X121933498Y-92925087D01*
X121933496Y-92925087D01*
X121927369Y-92924443D01*
X121840529Y-92932346D01*
X121728342Y-92942555D01*
X121728339Y-92942556D01*
X121722203Y-92943114D01*
X121524572Y-93001280D01*
X121342002Y-93096726D01*
X121337201Y-93100586D01*
X121337198Y-93100588D01*
X121326971Y-93108811D01*
X121181447Y-93225815D01*
X121049024Y-93383630D01*
X121046056Y-93389028D01*
X121046053Y-93389033D01*
X121039315Y-93401290D01*
X120949776Y-93564162D01*
X120887484Y-93760532D01*
X120886798Y-93766649D01*
X120886797Y-93766653D01*
X120865207Y-93959137D01*
X120864520Y-93965262D01*
X120881759Y-94170553D01*
X120938544Y-94368586D01*
X120941359Y-94374063D01*
X120941360Y-94374066D01*
X120962247Y-94414707D01*
X121032712Y-94551818D01*
X121160677Y-94713270D01*
X121317564Y-94846791D01*
X121497398Y-94947297D01*
X121562437Y-94968429D01*
X121621042Y-95008502D01*
X121648680Y-95073898D01*
X121636574Y-95143855D01*
X121588568Y-95196162D01*
X121562646Y-95208027D01*
X121396868Y-95262212D01*
X121387359Y-95266209D01*
X121198463Y-95364542D01*
X121189738Y-95370036D01*
X121019433Y-95497905D01*
X121011726Y-95504748D01*
X120864590Y-95658717D01*
X120858104Y-95666727D01*
X120738098Y-95842649D01*
X120733000Y-95851623D01*
X120643338Y-96044783D01*
X120639775Y-96054470D01*
X120611012Y-96158185D01*
X120573533Y-96218483D01*
X120509405Y-96248946D01*
X120438986Y-96239903D01*
X120384636Y-96194224D01*
X120368973Y-96160933D01*
X120368143Y-96158185D01*
X120355935Y-96117749D01*
X120259218Y-95935849D01*
X120183206Y-95842649D01*
X120132906Y-95780975D01*
X120132903Y-95780972D01*
X120129011Y-95776200D01*
X120110484Y-95760873D01*
X119975025Y-95648811D01*
X119975021Y-95648809D01*
X119970275Y-95644882D01*
X119789055Y-95546897D01*
X119592254Y-95485977D01*
X119586129Y-95485333D01*
X119586128Y-95485333D01*
X119393498Y-95465087D01*
X119393496Y-95465087D01*
X119387369Y-95464443D01*
X119300529Y-95472346D01*
X119188342Y-95482555D01*
X119188339Y-95482556D01*
X119182203Y-95483114D01*
X118984572Y-95541280D01*
X118802002Y-95636726D01*
X118797201Y-95640586D01*
X118797198Y-95640588D01*
X118764688Y-95666727D01*
X118641447Y-95765815D01*
X118509024Y-95923630D01*
X118506056Y-95929028D01*
X118506053Y-95929033D01*
X118428234Y-96070587D01*
X118409776Y-96104162D01*
X118347484Y-96300532D01*
X118346798Y-96306649D01*
X118346797Y-96306653D01*
X118325207Y-96499137D01*
X118324520Y-96505262D01*
X111535616Y-96505262D01*
X111529413Y-96458144D01*
X111474659Y-96325956D01*
X111408628Y-96239903D01*
X111392586Y-96218996D01*
X111392583Y-96218993D01*
X111387557Y-96212443D01*
X111274045Y-96125341D01*
X111141856Y-96070587D01*
X111110061Y-96066401D01*
X111045134Y-96037678D01*
X111037413Y-96030574D01*
X110466005Y-95459166D01*
X110431979Y-95396854D01*
X110429100Y-95370071D01*
X110429100Y-93965262D01*
X118324520Y-93965262D01*
X118341759Y-94170553D01*
X118398544Y-94368586D01*
X118401359Y-94374063D01*
X118401360Y-94374066D01*
X118422247Y-94414707D01*
X118492712Y-94551818D01*
X118620677Y-94713270D01*
X118777564Y-94846791D01*
X118957398Y-94947297D01*
X119052238Y-94978113D01*
X119147471Y-95009056D01*
X119147475Y-95009057D01*
X119153329Y-95010959D01*
X119357894Y-95035351D01*
X119364029Y-95034879D01*
X119364031Y-95034879D01*
X119420039Y-95030569D01*
X119563300Y-95019546D01*
X119569230Y-95017890D01*
X119569232Y-95017890D01*
X119693104Y-94983304D01*
X119761725Y-94964145D01*
X119767214Y-94961372D01*
X119767220Y-94961370D01*
X119940116Y-94874033D01*
X119945610Y-94871258D01*
X120107951Y-94744424D01*
X120242564Y-94588472D01*
X120263387Y-94551818D01*
X120341276Y-94414707D01*
X120344323Y-94409344D01*
X120409351Y-94213863D01*
X120435171Y-94009474D01*
X120435583Y-93980000D01*
X120415480Y-93774970D01*
X120355935Y-93577749D01*
X120259218Y-93395849D01*
X120185859Y-93305902D01*
X120132906Y-93240975D01*
X120132903Y-93240972D01*
X120129011Y-93236200D01*
X120111786Y-93221950D01*
X119975025Y-93108811D01*
X119975021Y-93108809D01*
X119970275Y-93104882D01*
X119789055Y-93006897D01*
X119592254Y-92945977D01*
X119586129Y-92945333D01*
X119586128Y-92945333D01*
X119393498Y-92925087D01*
X119393496Y-92925087D01*
X119387369Y-92924443D01*
X119300529Y-92932346D01*
X119188342Y-92942555D01*
X119188339Y-92942556D01*
X119182203Y-92943114D01*
X118984572Y-93001280D01*
X118802002Y-93096726D01*
X118797201Y-93100586D01*
X118797198Y-93100588D01*
X118786971Y-93108811D01*
X118641447Y-93225815D01*
X118509024Y-93383630D01*
X118506056Y-93389028D01*
X118506053Y-93389033D01*
X118499315Y-93401290D01*
X118409776Y-93564162D01*
X118347484Y-93760532D01*
X118346798Y-93766649D01*
X118346797Y-93766653D01*
X118325207Y-93959137D01*
X118324520Y-93965262D01*
X110429100Y-93965262D01*
X110429100Y-92309748D01*
X118329500Y-92309748D01*
X118330707Y-92315816D01*
X118334331Y-92334033D01*
X118341133Y-92368231D01*
X118385448Y-92434552D01*
X118451769Y-92478867D01*
X118463938Y-92481288D01*
X118463939Y-92481288D01*
X118504184Y-92489293D01*
X118510252Y-92490500D01*
X120249748Y-92490500D01*
X120255816Y-92489293D01*
X120296061Y-92481288D01*
X120296062Y-92481288D01*
X120308231Y-92478867D01*
X120374552Y-92434552D01*
X120418867Y-92368231D01*
X120425670Y-92334033D01*
X120429293Y-92315816D01*
X120430500Y-92309748D01*
X120430500Y-91425262D01*
X120864520Y-91425262D01*
X120881759Y-91630553D01*
X120938544Y-91828586D01*
X120941359Y-91834063D01*
X120941360Y-91834066D01*
X120962247Y-91874707D01*
X121032712Y-92011818D01*
X121160677Y-92173270D01*
X121317564Y-92306791D01*
X121497398Y-92407297D01*
X121581280Y-92434552D01*
X121687471Y-92469056D01*
X121687475Y-92469057D01*
X121693329Y-92470959D01*
X121897894Y-92495351D01*
X121904029Y-92494879D01*
X121904031Y-92494879D01*
X121976625Y-92489293D01*
X122103300Y-92479546D01*
X122109230Y-92477890D01*
X122109232Y-92477890D01*
X122295797Y-92425800D01*
X122295796Y-92425800D01*
X122301725Y-92424145D01*
X122307214Y-92421372D01*
X122307220Y-92421370D01*
X122480116Y-92334033D01*
X122485610Y-92331258D01*
X122647951Y-92204424D01*
X122782564Y-92048472D01*
X122803387Y-92011818D01*
X122881276Y-91874707D01*
X122884323Y-91869344D01*
X122949351Y-91673863D01*
X122975171Y-91469474D01*
X122975583Y-91440000D01*
X122955480Y-91234970D01*
X122895935Y-91037749D01*
X122799218Y-90855849D01*
X122717049Y-90755100D01*
X122672906Y-90700975D01*
X122672903Y-90700972D01*
X122669011Y-90696200D01*
X122651786Y-90681950D01*
X122515025Y-90568811D01*
X122515021Y-90568809D01*
X122510275Y-90564882D01*
X122329055Y-90466897D01*
X122132254Y-90405977D01*
X122126129Y-90405333D01*
X122126128Y-90405333D01*
X121933498Y-90385087D01*
X121933496Y-90385087D01*
X121927369Y-90384443D01*
X121840529Y-90392346D01*
X121728342Y-90402555D01*
X121728339Y-90402556D01*
X121722203Y-90403114D01*
X121524572Y-90461280D01*
X121342002Y-90556726D01*
X121337201Y-90560586D01*
X121337198Y-90560588D01*
X121238034Y-90640318D01*
X121181447Y-90685815D01*
X121049024Y-90843630D01*
X121046056Y-90849028D01*
X121046053Y-90849033D01*
X121039315Y-90861290D01*
X120949776Y-91024162D01*
X120887484Y-91220532D01*
X120886798Y-91226649D01*
X120886797Y-91226653D01*
X120865207Y-91419137D01*
X120864520Y-91425262D01*
X120430500Y-91425262D01*
X120430500Y-90570252D01*
X120426483Y-90550057D01*
X120421288Y-90523939D01*
X120421288Y-90523938D01*
X120418867Y-90511769D01*
X120374552Y-90445448D01*
X120308231Y-90401133D01*
X120296062Y-90398712D01*
X120296061Y-90398712D01*
X120255816Y-90390707D01*
X120249748Y-90389500D01*
X118510252Y-90389500D01*
X118504184Y-90390707D01*
X118463939Y-90398712D01*
X118463938Y-90398712D01*
X118451769Y-90401133D01*
X118385448Y-90445448D01*
X118341133Y-90511769D01*
X118338712Y-90523938D01*
X118338712Y-90523939D01*
X118333517Y-90550057D01*
X118329500Y-90570252D01*
X118329500Y-92309748D01*
X110429100Y-92309748D01*
X110429100Y-90755100D01*
X110449102Y-90686979D01*
X110502758Y-90640486D01*
X110555100Y-90629100D01*
X112331436Y-90629100D01*
X112379653Y-90638691D01*
X112508144Y-90691913D01*
X112650000Y-90710589D01*
X112791856Y-90691913D01*
X112924045Y-90637159D01*
X113037557Y-90550057D01*
X113042583Y-90543507D01*
X113042586Y-90543504D01*
X113109913Y-90455761D01*
X113124659Y-90436544D01*
X113179413Y-90304356D01*
X113198089Y-90162500D01*
X113179413Y-90020644D01*
X113124659Y-89888456D01*
X113081108Y-89831699D01*
X113042586Y-89781496D01*
X113042583Y-89781493D01*
X113037557Y-89774943D01*
X113006222Y-89750898D01*
X112930595Y-89692867D01*
X112924045Y-89687841D01*
X112791856Y-89633087D01*
X112650000Y-89614411D01*
X112508144Y-89633087D01*
X112375956Y-89687841D01*
X112313905Y-89735455D01*
X112301645Y-89744862D01*
X112235425Y-89770463D01*
X112224941Y-89770900D01*
X110555100Y-89770900D01*
X110486979Y-89750898D01*
X110440486Y-89697242D01*
X110429100Y-89644900D01*
X110429100Y-86802490D01*
X111679346Y-86802490D01*
X111698373Y-87011562D01*
X111757647Y-87212957D01*
X111854909Y-87399003D01*
X111986456Y-87562614D01*
X112147276Y-87697558D01*
X112152668Y-87700522D01*
X112152672Y-87700525D01*
X112167821Y-87708853D01*
X112331245Y-87798696D01*
X112531354Y-87862174D01*
X112537471Y-87862860D01*
X112537475Y-87862861D01*
X112615392Y-87871600D01*
X112694736Y-87880500D01*
X113257830Y-87880500D01*
X113413934Y-87865194D01*
X113614910Y-87804516D01*
X113631436Y-87795729D01*
X113794826Y-87708853D01*
X113794828Y-87708851D01*
X113800272Y-87705957D01*
X113860308Y-87656993D01*
X113958186Y-87577166D01*
X113958189Y-87577163D01*
X113962961Y-87573271D01*
X113966890Y-87568522D01*
X114092850Y-87416263D01*
X114092852Y-87416259D01*
X114096779Y-87411513D01*
X114196630Y-87226843D01*
X114258710Y-87026295D01*
X114260259Y-87011562D01*
X114280010Y-86823638D01*
X114280010Y-86823637D01*
X114280654Y-86817510D01*
X114261627Y-86608438D01*
X114202353Y-86407043D01*
X114105091Y-86220997D01*
X113973544Y-86057386D01*
X113812724Y-85922442D01*
X113807332Y-85919478D01*
X113807328Y-85919475D01*
X113634152Y-85824271D01*
X113628755Y-85821304D01*
X113428646Y-85757826D01*
X113422529Y-85757140D01*
X113422525Y-85757139D01*
X113344608Y-85748400D01*
X113265264Y-85739500D01*
X112702170Y-85739500D01*
X112546066Y-85754806D01*
X112345090Y-85815484D01*
X112339649Y-85818377D01*
X112165174Y-85911147D01*
X112165172Y-85911149D01*
X112159728Y-85914043D01*
X112154949Y-85917941D01*
X112001814Y-86042834D01*
X112001811Y-86042837D01*
X111997039Y-86046729D01*
X111993112Y-86051476D01*
X111993110Y-86051478D01*
X111867150Y-86203737D01*
X111867148Y-86203741D01*
X111863221Y-86208487D01*
X111763370Y-86393157D01*
X111701290Y-86593705D01*
X111700646Y-86599830D01*
X111700646Y-86599831D01*
X111699096Y-86614577D01*
X111679346Y-86802490D01*
X110429100Y-86802490D01*
X110429100Y-84262490D01*
X111679346Y-84262490D01*
X111698373Y-84471562D01*
X111757647Y-84672957D01*
X111854909Y-84859003D01*
X111986456Y-85022614D01*
X112147276Y-85157558D01*
X112152668Y-85160522D01*
X112152672Y-85160525D01*
X112167821Y-85168853D01*
X112331245Y-85258696D01*
X112531354Y-85322174D01*
X112537471Y-85322860D01*
X112537475Y-85322861D01*
X112615392Y-85331600D01*
X112694736Y-85340500D01*
X113257830Y-85340500D01*
X113413934Y-85325194D01*
X113614910Y-85264516D01*
X113631436Y-85255729D01*
X113794826Y-85168853D01*
X113794828Y-85168851D01*
X113800272Y-85165957D01*
X113860308Y-85116993D01*
X113958186Y-85037166D01*
X113958189Y-85037163D01*
X113962961Y-85033271D01*
X113966890Y-85028522D01*
X114092850Y-84876263D01*
X114092852Y-84876259D01*
X114096779Y-84871513D01*
X114196630Y-84686843D01*
X114258710Y-84486295D01*
X114260259Y-84471562D01*
X114280010Y-84283638D01*
X114280010Y-84283637D01*
X114280654Y-84277510D01*
X114261627Y-84068438D01*
X114202353Y-83867043D01*
X114105091Y-83680997D01*
X113973544Y-83517386D01*
X113812724Y-83382442D01*
X113807332Y-83379478D01*
X113807328Y-83379475D01*
X113634152Y-83284271D01*
X113628755Y-83281304D01*
X113428646Y-83217826D01*
X113422529Y-83217140D01*
X113422525Y-83217139D01*
X113344608Y-83208400D01*
X113265264Y-83199500D01*
X112702170Y-83199500D01*
X112546066Y-83214806D01*
X112345090Y-83275484D01*
X112339649Y-83278377D01*
X112165174Y-83371147D01*
X112165172Y-83371149D01*
X112159728Y-83374043D01*
X112154949Y-83377941D01*
X112001814Y-83502834D01*
X112001811Y-83502837D01*
X111997039Y-83506729D01*
X111993112Y-83511476D01*
X111993110Y-83511478D01*
X111867150Y-83663737D01*
X111867148Y-83663741D01*
X111863221Y-83668487D01*
X111763370Y-83853157D01*
X111701290Y-84053705D01*
X111700646Y-84059830D01*
X111700646Y-84059831D01*
X111699096Y-84074577D01*
X111679346Y-84262490D01*
X110429100Y-84262490D01*
X110429100Y-81722490D01*
X111679346Y-81722490D01*
X111698373Y-81931562D01*
X111757647Y-82132957D01*
X111854909Y-82319003D01*
X111986456Y-82482614D01*
X112147276Y-82617558D01*
X112152668Y-82620522D01*
X112152672Y-82620525D01*
X112167821Y-82628853D01*
X112331245Y-82718696D01*
X112531354Y-82782174D01*
X112537471Y-82782860D01*
X112537475Y-82782861D01*
X112615392Y-82791600D01*
X112694736Y-82800500D01*
X113257830Y-82800500D01*
X113413934Y-82785194D01*
X113614910Y-82724516D01*
X113631436Y-82715729D01*
X113794826Y-82628853D01*
X113794828Y-82628851D01*
X113800272Y-82625957D01*
X113860308Y-82576993D01*
X113958186Y-82497166D01*
X113958189Y-82497163D01*
X113962961Y-82493271D01*
X113966890Y-82488522D01*
X114092850Y-82336263D01*
X114092852Y-82336259D01*
X114096779Y-82331513D01*
X114196630Y-82146843D01*
X114258710Y-81946295D01*
X114260259Y-81931562D01*
X114280010Y-81743638D01*
X114280010Y-81743637D01*
X114280654Y-81737510D01*
X114261627Y-81528438D01*
X114202353Y-81327043D01*
X114105091Y-81140997D01*
X113973544Y-80977386D01*
X113812724Y-80842442D01*
X113807332Y-80839478D01*
X113807328Y-80839475D01*
X113634152Y-80744271D01*
X113628755Y-80741304D01*
X113428646Y-80677826D01*
X113422529Y-80677140D01*
X113422525Y-80677139D01*
X113344608Y-80668400D01*
X113265264Y-80659500D01*
X112702170Y-80659500D01*
X112546066Y-80674806D01*
X112345090Y-80735484D01*
X112339649Y-80738377D01*
X112165174Y-80831147D01*
X112165172Y-80831149D01*
X112159728Y-80834043D01*
X112154949Y-80837941D01*
X112001814Y-80962834D01*
X112001811Y-80962837D01*
X111997039Y-80966729D01*
X111993112Y-80971476D01*
X111993110Y-80971478D01*
X111867150Y-81123737D01*
X111867148Y-81123741D01*
X111863221Y-81128487D01*
X111763370Y-81313157D01*
X111701290Y-81513705D01*
X111700646Y-81519830D01*
X111700646Y-81519831D01*
X111699096Y-81534577D01*
X111679346Y-81722490D01*
X110429100Y-81722490D01*
X110429100Y-80529929D01*
X110449102Y-80461808D01*
X110466005Y-80440834D01*
X111250834Y-79656005D01*
X111313146Y-79621979D01*
X111339929Y-79619100D01*
X111558500Y-79619100D01*
X111626621Y-79639102D01*
X111673114Y-79692758D01*
X111684500Y-79745100D01*
X111684500Y-79863834D01*
X111687481Y-79895369D01*
X111732366Y-80023184D01*
X111737958Y-80030754D01*
X111737959Y-80030757D01*
X111800335Y-80115206D01*
X111812850Y-80132150D01*
X111820421Y-80137742D01*
X111914243Y-80207041D01*
X111914246Y-80207042D01*
X111921816Y-80212634D01*
X112049631Y-80257519D01*
X112057277Y-80258242D01*
X112057278Y-80258242D01*
X112063248Y-80258806D01*
X112081166Y-80260500D01*
X113878834Y-80260500D01*
X113896752Y-80258806D01*
X113902722Y-80258242D01*
X113902723Y-80258242D01*
X113910369Y-80257519D01*
X114038184Y-80212634D01*
X114045754Y-80207042D01*
X114045757Y-80207041D01*
X114139579Y-80137742D01*
X114147150Y-80132150D01*
X114159665Y-80115206D01*
X114222041Y-80030757D01*
X114222042Y-80030754D01*
X114227634Y-80023184D01*
X114272519Y-79895369D01*
X114275500Y-79863834D01*
X114275500Y-78516166D01*
X114272519Y-78484631D01*
X114227634Y-78356816D01*
X114222042Y-78349246D01*
X114222041Y-78349243D01*
X114152742Y-78255421D01*
X114147150Y-78247850D01*
X114130206Y-78235335D01*
X114045757Y-78172959D01*
X114045754Y-78172958D01*
X114038184Y-78167366D01*
X113910369Y-78122481D01*
X113902723Y-78121758D01*
X113902722Y-78121758D01*
X113896752Y-78121194D01*
X113878834Y-78119500D01*
X112081166Y-78119500D01*
X112063248Y-78121194D01*
X112057278Y-78121758D01*
X112057277Y-78121758D01*
X112049631Y-78122481D01*
X111921816Y-78167366D01*
X111914246Y-78172958D01*
X111914243Y-78172959D01*
X111829794Y-78235335D01*
X111812850Y-78247850D01*
X111807258Y-78255421D01*
X111737959Y-78349243D01*
X111737958Y-78349246D01*
X111732366Y-78356816D01*
X111687481Y-78484631D01*
X111684500Y-78516166D01*
X111684500Y-78634900D01*
X111664498Y-78703021D01*
X111610842Y-78749514D01*
X111558500Y-78760900D01*
X111142947Y-78760900D01*
X111128137Y-78760027D01*
X111096369Y-78756267D01*
X111087105Y-78757959D01*
X111087103Y-78757959D01*
X111041498Y-78766288D01*
X111037594Y-78766938D01*
X110991718Y-78773835D01*
X110991715Y-78773836D01*
X110982402Y-78775236D01*
X110976198Y-78778215D01*
X110969437Y-78779450D01*
X110961082Y-78783790D01*
X110919956Y-78805153D01*
X110916419Y-78806921D01*
X110866086Y-78831091D01*
X110861036Y-78835759D01*
X110854932Y-78838930D01*
X110850125Y-78843035D01*
X110814725Y-78878435D01*
X110811159Y-78881865D01*
X110771335Y-78918678D01*
X110767782Y-78924796D01*
X110762779Y-78930381D01*
X109815094Y-79878067D01*
X109752783Y-79912091D01*
X109681968Y-79907027D01*
X109625132Y-79864480D01*
X109600321Y-79797960D01*
X109600000Y-79788971D01*
X109600000Y-77526000D01*
X109620002Y-77457879D01*
X109673658Y-77411386D01*
X109726000Y-77400000D01*
X116874000Y-77400000D01*
X116942121Y-77420002D01*
G37*
%TD.AperFunction*%
%TD*%
M02*
